/* XPM */
static char *_bd51136427a416dbac880eb13f2d168VsH7ZuR58E6lkQmu[] = {
/* columns rows colors chars-per-pixel */
"64 64 6 1 ",
"  c black",
". c #11101A",
"X c #191826",
"o c #222034",
"O c #2A2840",
"+ c #322F4D",
/* pixels */
"oooooooooooooooooooooooooooooooooooooooooooooooooooooooooooooooo",
"oo                                                            oo",
"o ............................................................ o",
"o ............................................................ o",
"o ............................................................ o",
"o ............................................................ o",
"o ............................................................ o",
"o ............................................................ o",
"o ............................................................ o",
"o ............................................................ o",
"o ............................................................ o",
"o ............................................................ o",
"o ............................................................ o",
"o ............................................................ o",
"o ............................................................ o",
"o ............................................................ o",
"o ............................................................ o",
"o ............................................................ o",
"o ............................................................ o",
"o ............................................................ o",
"o ............................................................ o",
"o ............................................................ o",
"o ............................................................ o",
"o ............................................................ o",
"o ............................................................ o",
"o ............................................................ o",
"o ............................................................ o",
"o ............................................................ o",
"o ............................................................ o",
"o ............................................................ o",
"o ............................................................ o",
"o ............................................................ o",
"o ............................................................ o",
"o ............................................................ o",
"o ............................................................ o",
"o ............................................................ o",
"o ............................................................ o",
"o ............................................................ o",
"o ............................................................ o",
"o ............................................................ o",
"o ............................................................ o",
"o ............................................................ o",
"o ............................................................ o",
"o ............................................................ o",
"o ............................................................ o",
"o ............................................................ o",
"o ............................................................ o",
"o ............................................................ o",
"o ............................................................ o",
"o ............................................................ o",
"o ............................................................ o",
"o ............................................................ o",
"o ............................................................ o",
"o ............................................................ o",
"o ............................................................ o",
"oo                                                            oo",
"oooooooooooooooooooooooooooooooooooooooooooooooooooooooooooooooo",
"o ooo ooo oooooooooooooooooooooooooooooooooooooooooooooooo+++ooo",
"o ooo ooo ooooooooooooooooooooooooooooooooooooooooooooooo+OOO+oo",
"o ooo ooo ooooooooooooooooooooooooooooooooooooooooooooooo+OOO+oo",
"o. oo. oo. ooooooooooooooooooooooooooooooooooooooooooooooXOOOXoo",
"oo ooo ooo oooooooooooooooooooooooooooooooooooooooooooooo.XXX.oo",
"oo ooo ooo ooooooooooooooooooooooooooooooooooooooooooooooo...ooo",
"oo.ooo.ooo.ooooooooooooooooooooooooooooooooooooooooooooooooooooo"
};
