/* XPM */
static char *_642441ef2324f23904575ed3850ada4ZgLi2jAxzHnjs4GF[] = {
/* columns rows colors chars-per-pixel */
"15 15 3 1 ",
"  c None",
". c black",
"X c white",
/* pixels */
"       .       ",
"      .X.      ",
"      .X.      ",
"      .X.      ",
"      .X.      ",
"      .X.      ",
" ..... . ..... ",
".XXXXX. .XXXXX.",
" ..... . ..... ",
"      .X.      ",
"      .X.      ",
"      .X.      ",
"      .X.      ",
"      .X.      ",
"       .       "
};
