/* XPM */
static char *_fac8c04dedc45549394b98b3334987dZNqDtlL1A1KbQN13[] = {
/* columns rows colors chars-per-pixel */
"64 64 18 1 ",
"  c black",
". c #0E180A",
"X c #152D0B",
"o c #1B2E0B",
"O c #222034",
"+ c #323C39",
"@ c #403E3B",
"# c #1F4E09",
"$ c #4B692F",
"% c #595652",
"& c #696A6A",
"* c #2C8E09",
"= c #40AB0F",
"- c #68B40A",
"; c #6ABE30",
": c #FBF236",
"> c #99E550",
", c #847E87",
/* pixels */
"                                                                ",
" %%%%%%%%%%%% &&&&&&&&&&&&&&&&&&&&&&& ,,,,,,,,,,,, ,,,,,,,,,,,,,",
" %%%%%%%%%%%% &&&&&&&&&&&&&&&&&&&&&&& ,,,,,,,,,,,, ,,,,,,,,,,,,,",
"                                                                ",
"%%% @@@@@@@@@@@@@@@@ &&&&&&&&&&&&&&&&&&&&&&&&&& %%%%%%%%%%%% %%%",
"%%% @@@@@@@@@@@@@@@@ &&&&&&&&&&&&&&&&&&&&&&&&&& %%%%%%%%%%%% %%%",
"                                                                ",
" ,,,,,,,,,,,, %%%%%%%%%%%%%%%%%%%%%%% %%%%%%%%%%%%%%%% %%%%%%%%%",
" ,,,,,,,,,,,, %%%%%%%%%%%%%%%%%%%%%%% %%%%%%%%%%%%%%%% %%%%%%%%%",
"                                                                ",
",,, %%%%%%%%%%%%%%%% ,,,,,,,,,,,,, %%%%%%%%%%%% ,,,,,,,,,,,,,,,,",
",,, %%%%%%%%%%%%%%%% ,,,,,,,,,,,,, %%%%%%%%%%%% ,,,,,,,,,,,,,,,,",
"                                                                ",
" %%%%%%%%%%%% ,,,,,,,,,,,,,,,,,,,,,,, %%%%%%%%%%%%%%%% &&&&&&&&&",
" %%%%%%%%%%%% ,,,,,,,,,,,,,,,,,,,,,,, %%%%%%%%%%%%%%%% &&&&&&&&&",
"                                                                ",
"@@@ &&&&&&&&&&&&&&&& %%%%%%%%%%%%% %%%%%%%%%%%% @@@@@@@@@@@@@@@@",
"@@@ &&&&&&&&&&&&&&&& %%%%%%%%%%%%% %%%%%%%%%%%% @@@@@@@@@@@@@@@@",
"                                                                ",
" ,,,,,,,,,,,, &&&&&&&&&&&&&&&&&&&&&&& &&&&&&&&&&&&&&&& %%%%%%%%%",
" ,,,,,,,,,,,, &&&&&&&&&&&&&&&&&&&&&&& &&&&&&&&&&&&&&&& %%%%%%%%%",
"                                                                ",
"@@@ ,,,,,,,,,,,,,,,, %%%%%%%%%%%%% %%%%%%%%%%%% @@@@@@@@@@@@@@@@",
"@@@ ,,,,,,,,,,,,,,,, %%%%%%%%%%%%% %%%%%%%%%%%% @@@@@@@@@@@@@@@@",
"                                                                ",
" %%%%%%%%%%%% @@@@@@@@@@@@@@@@@@@@@@@ ,,,,,,,,,,,,,,,, %%%%%%%%%",
" %%%%%%%%%%%% @@@@@@@@@@@@@@@@@@@@@@@ ,,,,,,,,,,,,,,,, %%%%%%%%%",
"                                                                ",
"%%% &&&&&&&&&&&&&&&& ,,,,,,,,,,,,, %%%%%%%%%%%% %%%%%%%%%%%%%%%%",
"%%% &&&&&&&&&&&&&&&& ,,,,,,,,,,,,, %%%%%%%%%%%% %%%%%%%%%%%%%%%%",
"                                                                ",
" ,,,,,,,,,,,, &&&&&&&&&&&&&&&&&&&&&&& ,,,,,,,,,,,,,,,, &&&&&&&&&",
" ,,,,,,,,,,,, &&&&&&&&&&&&&&&&&&&&&&& ,,,,,,,,,,,,,,,, &&&&&&&&&",
"                                                                ",
",,, %%%%%%%%%%%%%%%% ,,,,,,,,,,,,, %%%%%%%%%%%% ,,,,,,,,,,,,,,,,",
",,, %%%%%%%%%%%%%%%% ,,,,,,,,,,,,, %%%%%%%%%%%% ,,,,,,,,,,,,,,,,",
"                                                                ",
" %%%%%%%%%%%% &&&&&&&&&&&&&&&&&&&&&&& &&&&&&&&&&&&&&&& ,,,,,,,,,",
" %%%%%%%%%%%% &&&&&&&&&&&&&&&&&&&&&&& &&&&&&&&&&&&&&&& ,,,,,,,,,",
"                                                                ",
"@@@ &&&&&&&&&&&&&&&& ,,,,,,,,,,,,, @@@@@@@@@@@@ @@@@@@@@@@@@@@@@",
"@@@ &O&&OOO&&&&&&&&& ,,,,,,,,,,,,, @@@@@@@@@@@@ @@@@@@@@@@@@@@@@",
"OOOOOOO;;OOOO::OOOOO      ;;OOOOOO OOO   OOOO                   ",
"$;;OOOOOO;OOOOO:OOOOOOOO%OOO;O::OOO;;OOOOOOO;;OO%%OOO%%%%%%%%%%%",
"OO$;++OOOOOO;;;;O;::::OOOOOO+$$;:;;O;;OOO;;OO::OOOOOOO;;OOO%OOOO",
";;::;;;;;;O:::;;;OO;::>>;;;O;;+$O;;::::$;;;;OO;:$;;;;OOO;OOOOOOO",
";;>>:+;$;;:::OO$:+;;OO;;>;$$:::OO;;;$:::O;;;;O;;;;::::$$O;>>;;;O",
"OO;$>;;::::;;:O;::$$;$OO;;;>>>>$;:;;;$;;;;+:::$;;;;;:::$$++;>;;;",
":::;;;;>>>>:;;; ::::>>>;;;;;;>>>$::;;;;;$$:+;;;;:;$::;;;$;;;;$;>",
"===*#-X**===.==#**-=---##=**.  *##- *##--##***##--***-#*===***##",
".****=-*-###XX-=##*#X*==*==X#****# #.##**-*##*# X-*##**=----*=##",
"###**==#***## --##====**=*=---.**** .####***----*---##X***---==X",
"#.--*X=****===*-*X -===***#====*##***---### **---.#*# -X**###*=*",
"****-###**=*****=*-*===*-****===*X.#-***  -.*****#***#--* .X****",
"#*X#** ----XX ##==*=**= -=***** *...*#*X**----*.# X#***==***X#**",
"---******---***##=*#*****====X****** #XXX.*-*#- .****##**=***#XX",
"#****-*#* ******##===#****==== .******* ##***XX#*----*## ***====",
"**#.#--****#**X#*=*****=#*****.  .X#****#*---..****--===**X*..==",
"***# #-*#*****.*##*****==#*#**##****.XX**-*  ##-****=***##=#*## ",
"#**.#****#* #XX#* .*.**#=***X*##***** #*#XXXX*#--#.*##*###==**##",
"*.*##*****# .###** XX#*X*X####*X#*####   .X##** - ##..**** = *XX",
"###*##*#####...##*X####XXXX###**XXXX###X...##X****##. .X***.  ..",
"...**# . .X#XX ...#XXXX.#X#.X.X*#oX  ..XX. .#.*....#* X...#.X ..",
"...X*##...X##.  X..... .##..XX.X##. ....XX  ........** .....XX.."
};
