/* XPM */
static char *_6f12f50b2c346a8c5a1aabf97f14914yUagZGeBEWMyyixB[] = {
/* columns rows colors chars-per-pixel */
"64 64 5 1 ",
"  c black",
". c #403E3B",
"X c #595652",
"o c #696A6A",
"O c #847E87",
/* pixels */
"                                                                ",
" XXXXXXXXXXXX ooooooooooooooooooooooo OOOOOOOOOOOO OOOOOOOOOOOOO",
" XXXXXXXXXXXX ooooooooooooooooooooooo OOOOOOOOOOOO OOOOOOOOOOOOO",
"                                                                ",
"XXX ................ oooooooooooooooooooooooooo XXXXXXXXXXXX XXX",
"XXX ................ oooooooooooooooooooooooooo XXXXXXXXXXXX XXX",
"                                                                ",
" OOOOOOOOOOOO XXXXXXXXXXXXXXXXXXXXXXX XXXXXXXXXXXXXXXX XXXXXXXXX",
" OOOOOOOOOOOO XXXXXXXXXXXXXXXXXXXXXXX XXXXXXXXXXXXXXXX XXXXXXXXX",
"                                                                ",
"OOO XXXXXXXXXXXXXXXX OOOOOOOOOOOOO XXXXXXXXXXXX OOOOOOOOOOOOOOOO",
"OOO XXXXXXXXXXXXXXXX OOOOOOOOOOOOO XXXXXXXXXXXX OOOOOOOOOOOOOOOO",
"                                                                ",
" XXXXXXXXXXXX OOOOOOOOOOOOOOOOOOOOOOO XXXXXXXXXXXXXXXX ooooooooo",
" XXXXXXXXXXXX OOOOOOOOOOOOOOOOOOOOOOO XXXXXXXXXXXXXXXX ooooooooo",
"                                                                ",
"XXX oooooooooooooooo XXXXXXXXXXXXX XXXXXXXXXXXX XXXXXXXXXXXXXXXX",
"XXX oooooooooooooooo XXXXXXXXXXXXX XXXXXXXXXXXX XXXXXXXXXXXXXXXX",
"                                                                ",
" OOOOOOOOOOOO ooooooooooooooooooooooo oooooooooooooooo XXXXXXXXX",
" OOOOOOOOOOOO ooooooooooooooooooooooo oooooooooooooooo XXXXXXXXX",
"                                                                ",
"OOO OOOOOOOOOOOOOOOO XXXXXXXXXXXXX XXXXXXXXXXXX OOOOOOOOOOOOOOOO",
"OOO OOOOOOOOOOOOOOOO XXXXXXXXXXXXX XXXXXXXXXXXX OOOOOOOOOOOOOOOO",
"                                                                ",
" XXXXXXXXXXXX ....................... OOOOOOOOOOOOOOOO XXXXXXXXX",
" XXXXXXXXXXXX ....................... OOOOOOOOOOOOOOOO XXXXXXXXX",
"                                                                ",
"XXX oooooooooooooooo OOOOOOOOOOOOO XXXXXXXXXXXX XXXXXXXXXXXXXXXX",
"XXX oooooooooooooooo OOOOOOOOOOOOO XXXXXXXXXXXX XXXXXXXXXXXXXXXX",
"                                                                ",
" OOOOOOOOOOOO ooooooooooooooooooooooo OOOOOOOOOOOOOOOO ooooooooo",
" OOOOOOOOOOOO ooooooooooooooooooooooo OOOOOOOOOOOOOOOO ooooooooo",
"                                                                ",
"OOO XXXXXXXXXXXXXXXX OOOOOOOOOOOOO XXXXXXXXXXXX OOOOOOOOOOOOOOOO",
"OOO XXXXXXXXXXXXXXXX OOOOOOOOOOOOO XXXXXXXXXXXX OOOOOOOOOOOOOOOO",
"                                                                ",
" XXXXXXXXXXXX ooooooooooooooooooooooo oooooooooooooooo OOOOOOOOO",
" XXXXXXXXXXXX ooooooooooooooooooooooo oooooooooooooooo OOOOOOOOO",
"                                                                ",
"... oooooooooooooooo OOOOOOOOOOOOO ............ ................",
"... oooooooooooooooo OOOOOOOOOOOOO ............ ................",
"                                                                ",
" XXXXXXXXXXXX XXXXXXXXXXXXXXXXXXXXXXX XXXXXXXXXXXXXXXXXXXXXXXXXX",
" XXXXXXXXXXXX XXXXXXXXXXXXXXXXXXXXXXX XXXXXXXXXXXXXXXXXXXXXXXXXX",
"                                                                ",
"... ................ ................... OOOOOOOOOOOOOOOO ......",
"... ................ ................... OOOOOOOOOOOOOOOO ......",
"                                                                ",
" oooooooooooo OOOOOOOOOOOOOOOOOOOOOOO XXXXXXXXXXXX XXXXXXXXXXXXX",
" oooooooooooo OOOOOOOOOOOOOOOOOOOOOOO XXXXXXXXXXXX XXXXXXXXXXXXX",
"                                                                ",
"... XXXXXXXXXXXXXXXX OOOOOOOOOOOOOOOOOOO OOOOOOOOOOOOOOOO ......",
"... XXXXXXXXXXXXXXXX OOOOOOOOOOOOOOOOOOO OOOOOOOOOOOOOOOO ......",
"                                                                ",
" OOOOOOOOOOOO ooooooooooooooooooooooo XXXXXXXXXXXX OOOOOOOOOOOOO",
" OOOOOOOOOOOO ooooooooooooooooooooooo XXXXXXXXXXXX OOOOOOOOOOOOO",
"                                                                ",
"XXX ................ ................... ................ XXXXXX",
"XXX ................ ................... ................ XXXXXX",
"                                                                ",
" ............ ....................... XXXXXXXXXXXX .............",
" ............ ....................... XXXXXXXXXXXX .............",
"                                                                "
};
