/* XPM */
static char *_1ae4f278f64403da4543c291ae6f97eO9z0z0HalSuxAyJ5[] = {
/* columns rows colors chars-per-pixel */
"64 64 2 1 ",
"  c black",
". c red",
/* pixels */
"                                                                ",
"                                                                ",
"                                                                ",
"                                                                ",
"                                                                ",
"                                                                ",
"..........................      ................................",
"..........................      ................................",
"..........................      ................................",
"..........................      ................................",
"..........................      ................................",
"..........................      ................................",
"..........................      ................................",
"..........................      ................................",
"..........................      ................................",
"..........................      ................................",
"..........................      ................................",
"..........................      ................................",
"..........................      ................................",
"..........................      ................................",
"..........................      ................................",
"..........................      ................................",
"..........................      ................................",
"..........................      ................................",
"..........................      ................................",
"..........................      ................................",
"..........................      ................................",
"..........................      ................................",
"..........................      ................................",
"..........................      ................................",
"                                                                ",
"                                                                ",
"                                                                ",
"                                                                ",
"                                                                ",
"                                                                ",
"..........................      ................................",
"..........................      ................................",
"..........................      ................................",
"..........................      ................................",
"..........................      ................................",
"..........................      ................................",
"..........................      ................................",
"..........................      ................................",
"..........................      ................................",
"..........................      ................................",
"..........................      ................................",
"..........................      ................................",
"..........................      ................................",
"..........................      ................................",
"..........................      ................................",
"..........................      ................................",
"..........................      ................................",
"..........................      ................................",
"..........................      ................................",
"..........................      ................................",
"..........................      ................................",
"..........................      ................................",
"                                                                ",
"                                                                ",
"                                                                ",
"                                                                ",
"                                                                ",
"                                                                "
};
