/* XPM */
static char *e4a54bce45be4c13b4023aa708068960m4nB48GRW2tXHjWo[] = {
/* columns rows colors chars-per-pixel */
"64 64 54 1 ",
"  c black",
". c gray3",
"X c #101010",
"o c #181818",
"O c #010926",
"+ c #020C35",
"@ c #202020",
"# c #282828",
"$ c gray19",
"% c gray22",
"& c #020F44",
"* c #031253",
"= c #031562",
"- c #041562",
"; c #041871",
": c gray25",
"> c #484848",
", c #041B80",
"< c #051E8F",
"1 c #03219E",
"2 c #05219E",
"3 c #0624AD",
"4 c #0824AD",
"5 c #0627BC",
"6 c #0927BC",
"7 c #0628BB",
"8 c #032ACB",
"9 c #062ACB",
"0 c #082ACB",
"q c #062DDA",
"w c #0A2DDA",
"e c #0630E9",
"r c #0A30E9",
"t c #0A36EF",
"y c #0634F7",
"u c #0E35F5",
"i c #0633F8",
"p c #143FF5",
"a c #133FF9",
"s c #143FF9",
"d c #1F42F5",
"f c #1F49FB",
"g c #234BF5",
"h c #234BF9",
"j c #3257F6",
"k c #3257F9",
"l c #3B59F8",
"z c #4163F9",
"x c #4A65F9",
"c c #506FF8",
"v c #5F7BF9",
"b c #6E87FA",
"n c #7D93FB",
"m c #8C9FFB",
/* pixels */
"     ooooXXXX XXXX                @###.        ....     XXXX    ",
"$$$  ooooXXXX XXXX      @@@@      @###. .%:>:Xo$$$@     Xooo.   ",
"$$$  ooooXXXX XXXX      @@@@      @###. .%:>:Xo$$$@     Xooo.   ",
"$$$  ooooXXXX XXXX      @@@@      .XXX. .%:>:Xo$$$@     Xooo.   ",
":::Xqqqq3333qqqqqqqqqqqqhhhhqq999953339qecvxl0wkkksq;;;;qeee.   ",
"XXXXq99923<<59kkkhqqqqqeiiieqq999953<,<259q3333qqqqq;;&&33qq    ",
"Xoooe99923<<59sw91;<,;,20iieqq999953<,<259qqyyyhiiiq;;++22qq    ",
"Xooossss53<<5qkue4;<,*=,3iieqq999<,;*,<259qqyyybbbbi;;OO<<qq    ",
" ...skkkr3<<3qkue4;<,*=,3iieqqqqq222,32259qskkknmmmskkqq<<qq    ",
" ...szhi5;<39eq32;;<,*=;3iiiqqqqq2222qqqqqqskkknmmmskkss55qq    ",
"ooo izhi59eskeiiieee5,=-6ww0<33,<&&,,9qeeeeqqqqzbbbskkhheeii    ",
"@@@ qiq52qihzqqqqqee93<6ddd0<33,<,,3359eeeeqqqqeissizkkkihhhX   ",
"@@@ qq522gjcc9qqqqee9938fii0<33,<,,359ihsvczzeqqqiiiiqqqihhhX   ",
"##@ qqqqqvccc9qqqqee9938iqq3<33,<,,359ihsvvcciqqqssssiiihhhhX   ",
"@@. ihhhiyeeq599qqqqesskhiiqqqqqqqq9qqisicvvvsqqqhhkkhhssiiz$@@ ",
"oo  ihhhieqq93559qeqqieee99qqqqqqqqeiihsicvvvsqqqhhkkhhssqqz$$$ ",
"oo  ihhhiqqq53339isie959qqqeeeeqiiiseeeqqqiiiseeehhkkhhssqqz$$$ ",
"XX  ihhhieee2,,,9isiw535qqqhhhhqiiiyq3333qeeehhhhczcciieeqqz$$$ ",
"    qqqqqeee2,,,9isw3<20iiekkkhqiii93,,33qqsszbzkzsshqqqqqqiXXX ",
"... qhhhhqqq&&&&qiiq3<30iiekkkhqiii52;;33qqsskvsypqysqqqqqiiXX  ",
"... qkkkk999&***qqq52255qq9hhhsqqqq22;=229qssikq9y9eyqqqqqik##o ",
"... qkkks<<<*,<<eeq53305995eeeqqqqq333<555qie6w27q5q9qqqqqsz$$o ",
"... qkkks<<<=600heqqqqq3333qq9999qqqqq5555q95<<,7yyheqqqqqsz$$o ",
"... hkkk92225shhheqqqqq32229q9999q93332555q95223ekkkiqqqqqeh@@o ",
"@@@ hhhh53339issseqqqqq92223qqqqqq52223999q95559szvvkiqqqqee..  ",
"$$$ hhhhqqqqqihhhiqq999932229iiii2,=*<39qqqq92<<3hccziiiiiqqXXXX",
"%%% hhhhqqqqq9wwweqq9333<<<<5ssse,=O+;<9qqq93,;=,qakkssssiqqXXXX",
"$$$ qqhhhhqqq9wwweqq933322225sssq*&O&<29q53<;;;=;5eshhhhhiqqXXXX",
"ooo qqczzz9qqqeeeeqq933355555q992&*+*55ey53<;;;=;239qskkkiqqoooo",
"... qqvzzz5qqq9999qqq55559999322;,<;299yy53<,35332,23yhhhqqqXXXX",
"    qqvhhh2qqqq9999qqqqeeeeq92<<<2335eeyy53229qq95225yhhsqqqXXXX",
"    qqhqqq2qqqq5555qqqqeeee95<235eqqqiiee99qqqqqq9335essiqqqXXXX",
"    qq3777eqqqq2222qqqqeiie9320qeiqqqqq<<<<qqqqqqq559qiieqqq....",
"    qq2999sqqss9922qqqqesy72;,qeiiqqhhh7;;;9qqqqqqqeissieqqq    ",
"    qq2tttzqqhkuu53qq999ss73;,eiiiqqhhh7===5qqqqeeesihhiiqqqoooo",
"    qq2hhhvqqhkss9533<<9hkq9,2eeeqqqhhh9===3qqqqiiizhzcsseqq%%::",
"    qqqhkkkeqhhhhqq33;;3ehq9<3eeee99syhs,,,<qqqqsskbzvbkksqq%:>>",
"    qq5esskiqeqqq9q33==29hsy9qeeq9<<22qq2<<<9qqikkvbzcckkheq%:>>",
"@   q939eyhiqq<<<<e55=*<2ieq9qeq95,<22qq3<<<5qqskzbvzkkzzzsq@#$$",
"@   q2,,2qiiqq<<<<eeq<,,<q9999q955,<22qq5,,,2qqhkzmczkikzzhe ...",
"@   q2,,<9eeqq2222ee92<<3qeeeeq953<235qqq2222qekkzvhhsqskkki    ",
"@   q2222qqqqq3333ee52<<5qeeeeq9999qqqqqq3333qesshkssiqihhhi    ",
"ooo q3333qqqqqqqqqqq3333q9eeeiqqqqqqqqqqq5555qeiiisiiiqqssss    ",
"ooo qqqqqeeeeqqqqqqq5555q5qqqiqqqq5555qqqqqqqqeeeeqqqqqqhhhh    ",
"ooo qqqqqeeeeqqqqqqq9999q53339qqqq;;;;qqqq9999qq3333qqqqhhhh....",
"ooo qqqqqeeeeq95559qqqqqq52225qqqq;;;;qqqq5qqqiq<<<<eeeehzzzo...",
"    q9999eeeeq95559qqhhhh93335qqqq;;;=22239eeeiq;;;;eeeeszzz@...",
"    q5555qqqqq95eeisqhhhhq553399qq<<<;<<<3esssiq;;;;eeeeezzz$...",
"XX. q2222qqqqq9ehhksqhhhhq993355qqqq92;;,5skkhiq2<<<qeeeqzzz$   ",
"XX. q2222qqqqeicnbvsqhhhh9993555qqqq5<--<9kkhsqq52225qqqqkkz$.. ",
"##@.q3333qqqqeicnbvsq99933333552555qrwweeskhsiqqq<<<<qqqqhhk#.. ",
"$$#.q5555qqqqqezzzkqq322,2335qq5955qreeuisye9599q<<<<qqqqzzc%.. ",
"@@@.qqqqqqqqqqesssiqq322,2339ee9955eshhhsie93359q2222qqqqzzc%.. ",
"@@@.qqq9999qq9999qqqq533<355qee9959szczkieq5<<23q3333qqqiccc#   ",
"XXX qqq3335eeq999qqqqq9999qqqeishkzczhiqqq95<<23qqqqqqq39ggc#   ",
".XX.eqq555qiiiqqqqqqqiiiiqqqqqeiskzczhiqeeeq3335qqqqqq9<379soXXX",
"XooXeqqyyyhiiiqqqqqqqiiiiqqqqqeiskzzkseqeeee5555qqqq9<,&;35iXXXX",
"XooXeqehhhkiiiqqqqqqqeeeeqqqqqeiskkhseqqeeeeqqqqqqqq9<,&*<2qXXXX",
".XXXeqezzzzeeeqqqqqqqqqqqqqqqqqqqqqqqqqqeeeeqqqqqqqq9<,;,59qXXXX",
".oooiqekkkhqqqqqqqqqqeeeeqqqqqqqqqqqqshkkieqqqqqqqqq9<<<3essXX  ",
" XXXX.o@@o.  XXXo... XXXXXXXoXXX.XXXXo@$$oX    o@##X.   ..oo@@XX",
" XXXX.XooX.  XXXoXXX.XXXXXXXoXXX.XXXXo@$$oX    o@##X.   ..oo@@XX",
" XXXX.XooX.  XXXoXXX.XXXXXXXoXXX.XXXXo@$$oX    o@##X.   ..oo@@XX",
"     .XooX.  XXXoXXX.....XXXoXXX.XXXX  ....    o@##X.       XXXX"
};
