/* XPM */
static char *_d56edf0392c4270847aae8bd7057f2bqlSeRrZKUIunFvsn[] = {
/* columns rows colors chars-per-pixel */
"64 64 6 1 ",
"  c #331D1B",
". c #332013",
"X c #A35F31",
"o c #BB7547",
"O c #CF8A5D",
"+ c #E69B75",
/* pixels */
"................................................................",
"..OOOOOOOOOOOO....OOOOOOOOOOOO....OOOOOOOOOOOO....OOOOOOOOOOOO..",
".o.OOOOOOOOOO X..o.OOOOOOOOOO X..o.OOOOOOOOOO X..o.OOOOOOOOOO X.",
".oo.OOOOOOOO XX..oo.OOOOOOOO XX..oo.OOOOOOOO XX..oo.OOOOOOOO XX.",
".ooo........XXX..ooo........XXX..ooo........XXX..ooo........XXX.",
".ooo.++++++.XXX..ooo.++++++.XXX..ooo.++++++.XXX..ooo.++++++.XXX.",
".ooo.++++++.XXX..ooo.++++++.XXX..ooo.++++++.XXX..ooo.++++++.XXX.",
".ooo.++++++.XXX..ooo.++++++.XXX..ooo.++++++.XXX..ooo.++++++.XXX.",
".ooo.++++++.XXX..ooo.++++++.XXX..ooo.++++++.XXX..ooo.++++++.XXX.",
".ooo.++++++.XXX..ooo.++++++.XXX..ooo.++++++.XXX..ooo.++++++.XXX.",
".ooo.++++++.XXX..ooo.++++++.XXX..ooo.++++++.XXX..ooo.++++++.XXX.",
".ooo........XXX..ooo........XXX..ooo........XXX..ooo........XXX.",
".oo XXXXXXXX.XX..oo XXXXXXXX.XX..oo XXXXXXXX.XX..oo XXXXXXXX.XX.",
".o.XXXXXXXXXX.X..o.XXXXXXXXXX.X..o.XXXXXXXXXX.X..o.XXXXXXXXXX.X.",
"..XXXXXXXXXXXX....XXXXXXXXXXXX....XXXXXXXXXXXX....XXXXXXXXXXXX..",
"................................................................",
"................................................................",
"..OOOOOOOOOOOO....OOOOOOOOOOOO....OOOOOOOOOOOO....OOOOOOOOOOOO..",
".o.OOOOOOOOOO X..o.OOOOOOOOOO X..o.OOOOOOOOOO X..o.OOOOOOOOOO X.",
".oo.OOOOOOOO XX..oo.OOOOOOOO XX..oo.OOOOOOOO XX..oo.OOOOOOOO XX.",
".ooo........XXX..ooo........XXX..ooo........XXX..ooo........XXX.",
".ooo.++++++.XXX..ooo.++++++.XXX..ooo.++++++.XXX..ooo.++++++.XXX.",
".ooo.++++++.XXX..ooo.++++++.XXX..ooo.++++++.XXX..ooo.++++++.XXX.",
".ooo.++++++.XXX..ooo.++++++.XXX..ooo.++++++.XXX..ooo.++++++.XXX.",
".ooo.++++++.XXX..ooo.++++++.XXX..ooo.++++++.XXX..ooo.++++++.XXX.",
".ooo.++++++.XXX..ooo.++++++.XXX..ooo.++++++.XXX..ooo.++++++.XXX.",
".ooo.++++++.XXX..ooo.++++++.XXX..ooo.++++++.XXX..ooo.++++++.XXX.",
".ooo........XXX..ooo........XXX..ooo........XXX..ooo........XXX.",
".oo XXXXXXXX.XX..oo XXXXXXXX.XX..oo XXXXXXXX.XX..oo XXXXXXXX.XX.",
".o.XXXXXXXXXX.X..o.XXXXXXXXXX.X..o.XXXXXXXXXX.X..o.XXXXXXXXXX.X.",
"..XXXXXXXXXXXX....XXXXXXXXXXXX....XXXXXXXXXXXX....XXXXXXXXXXXX..",
"................................................................",
"................................................................",
"..OOOOOOOOOOOO....OOOOOOOOOOOO....OOOOOOOOOOOO....OOOOOOOOOOOO..",
".o.OOOOOOOOOO X..o.OOOOOOOOOO X..o.OOOOOOOOOO X..o.OOOOOOOOOO X.",
".oo.OOOOOOOO XX..oo.OOOOOOOO XX..oo.OOOOOOOO XX..oo.OOOOOOOO XX.",
".ooo........XXX..ooo........XXX..ooo........XXX..ooo........XXX.",
".ooo.++++++.XXX..ooo.++++++.XXX..ooo.++++++.XXX..ooo.++++++.XXX.",
".ooo.++++++.XXX..ooo.++++++.XXX..ooo.++++++.XXX..ooo.++++++.XXX.",
".ooo.++++++.XXX..ooo.++++++.XXX..ooo.++++++.XXX..ooo.++++++.XXX.",
".ooo.++++++.XXX..ooo.++++++.XXX..ooo.++++++.XXX..ooo.++++++.XXX.",
".ooo.++++++.XXX..ooo.++++++.XXX..ooo.++++++.XXX..ooo.++++++.XXX.",
".ooo.++++++.XXX..ooo.++++++.XXX..ooo.++++++.XXX..ooo.++++++.XXX.",
".ooo........XXX..ooo........XXX..ooo........XXX..ooo........XXX.",
".oo XXXXXXXX.XX..oo XXXXXXXX.XX..oo XXXXXXXX.XX..oo XXXXXXXX.XX.",
".o.XXXXXXXXXX.X..o.XXXXXXXXXX.X..o.XXXXXXXXXX.X..o.XXXXXXXXXX.X.",
"..XXXXXXXXXXXX....XXXXXXXXXXXX....XXXXXXXXXXXX....XXXXXXXXXXXX..",
"................................................................",
"................................................................",
"..OOOOOOOOOOOO....OOOOOOOOOOOO....OOOOOOOOOOOO....OOOOOOOOOOOO..",
".o.OOOOOOOOOO X..o.OOOOOOOOOO X..o.OOOOOOOOOO X..o.OOOOOOOOOO X.",
".oo.OOOOOOOO XX..oo.OOOOOOOO XX..oo.OOOOOOOO XX..oo.OOOOOOOO XX.",
".ooo........XXX..ooo........XXX..ooo........XXX..ooo........XXX.",
".ooo.++++++.XXX..ooo.++++++.XXX..ooo.++++++.XXX..ooo.++++++.XXX.",
".ooo.++++++.XXX..ooo.++++++.XXX..ooo.++++++.XXX..ooo.++++++.XXX.",
".ooo.++++++.XXX..ooo.++++++.XXX..ooo.++++++.XXX..ooo.++++++.XXX.",
".ooo.++++++.XXX..ooo.++++++.XXX..ooo.++++++.XXX..ooo.++++++.XXX.",
".ooo.++++++.XXX..ooo.++++++.XXX..ooo.++++++.XXX..ooo.++++++.XXX.",
".ooo.++++++.XXX..ooo.++++++.XXX..ooo.++++++.XXX..ooo.++++++.XXX.",
".ooo........XXX..ooo........XXX..ooo........XXX..ooo........XXX.",
".oo XXXXXXXX.XX..oo XXXXXXXX.XX..oo XXXXXXXX.XX..oo XXXXXXXX.XX.",
".o.XXXXXXXXXX.X..o.XXXXXXXXXX.X..o.XXXXXXXXXX.X..o.XXXXXXXXXX.X.",
"..XXXXXXXXXXXX....XXXXXXXXXXXX....XXXXXXXXXXXX....XXXXXXXXXXXX..",
"................................................................"
};
