/* XPM */
static char *a925b8db31b8455e8a873a231a8132455mSRRYGdVoiB3MLj[] = {
/* columns rows colors chars-per-pixel */
"64 64 4 1 ",
"  c #260000",
". c #591A1A",
"X c #802525",
"o c #AC3232",
/* pixels */
"XooooXXXX oXXXXXooooooooXXXXX oooooooo oXXXXXooooooooXXXXX ooXXX",
"XXXXXXXXX XXXXXXXXXXXXXXXXXX. XXXXXXXX XXXXXXXXXXXXXXXXXX. XXXXo",
"XXXXXXXX. .XXXXXXXXXXXXXXXXX. .XXXXXXX .XXXXXXXXXXXXXXXXX. .XXXX",
".XXXXX..   .XX..............   ......   .XX..............   ....",
"                                                                ",
"XXX    oooooXXXXXX    ooooooooXX    oooooXXXXXX    ooooooooXX   ",
"XXXX  ooXXXXXXXXXX.  oXXXooooXXXX  ooXXXXXXXXXX.  oXXXooooXXXX o",
"XXXX  XXXXoooooXXXX  XXXXXXXXXXXX  XXXXoooooXXXX  XXXXXXXXXXXX o",
"XXX.  .XXXXXXXXXXX.  .XXXXXXXXXX.  .XXXXXXXXXXX.  .XXXXXXXXXX. X",
"XXX.   ...........    ...XXXXX..    ...........    ...XXXXX..  .",
"...                                                             ",
"                                                                ",
"oooooXX   ooooooooooooXXXXX   oooooo   ooooooooooooXXXXX    oooo",
"ooooXXXX ooXXXXXXXXXXXXXXXXX ooXXXXXo ooXXXXXXXXXXXXXXXXX  ooXXX",
"XXXXXXXX oXXXXXooooooooXXXXX XXXXXXXX oXXXXXooooooooXXXXX  XXXXo",
"XXXXXXX. XXXXXXXXXXXXXXXXXX. XXXXXXXX XXXXXXXXXXXXXXXXXX.  .XXXX",
"XXXXX..  .XXXXXXXXXXXXXXXXX. .XXXXXX. .XXXXXXXXXXXXXXXXX.   ....",
"          .XX..............   ......   .XX..............        ",
"                                                                ",
"XX    oooooXXXXXX    ooooooooXX    oooooXXXXXX    ooooooooXX    ",
"XXX  ooXXXXXXXXXX.  oXXXooooXXXX  ooXXXXXXXXXX.  oXXXooooXXXX  o",
"XXX  XXXXoooooXXXX  XXXXXXXXXXXX  XXXXoooooXXXX  XXXXXXXXXXXX  X",
"XX.  .XXXXXXXXXXX.  .XXXXXXXXXX.  .XXXXXXXXXXX.  .XXXXXXXXXX.  .",
"..    ...........    ...XXXXX..    ...........    ...XXXXX..    ",
"                                                                ",
"oooooooXXXXX   oooXXX   ooooooooooooXXXXX   oooooo   ooooooooooo",
"XXXXXXXXXXXXX ooXXXXXX ooXXXXXXXXXXXXXXXXX oooXXXXX ooXXXXXXXXXX",
"ooooooooXXXXX XXXXXXXX oXXXXXooooooooXXXXX oXXXXXXX oXXXXXoooooo",
"XXXXXXXXXXXX. XXXXXXXX XXXXXXXXXXXXXXXXXX. XXXXXXX. XXXXXXXXXXXX",
"XXXXXXXXXXXX. XXXXX... .XXXXXXXXXXXXXXXXX. XXXXX... .XXXXXXXXXXX",
"............   ......   .XX..............   X.....   .XX........",
"                                                                ",
"XX    ooooooooXX    oooooXXXXXX    ooooooooXX    oooooXXXXXX    ",
"XX.  oXXXooooXXXX  ooXXXXXXXXXX.  oXXXooooXXXX  ooXXXXXXXXXX.  o",
"XXX  XXXXXXXXXXXX  XXXXoooooXXXX  XXXXXXXXXXXX  XXXXoooooXXXX  X",
"XX.  .XXXXXXXXXX.  .XXXXXXXXXXX.  .XXXXXXXXXX.  .XXXXXXXXXXX.  .",
"..    ...XXXXX..    ...........    ...XXXXX..    ...........    ",
"                                                                ",
"  ooooooooooooXXXXX   oooooo   ooooooooooooXXXXX   oooXXX   oooo",
" ooXXXXXXXXXXXXXXXXX ooXXXXoo ooXXXXXXXXXXXXXXXXX ooXXXXXX ooXXX",
" oXXXXXooooooooXXXXX XXXXXXXX oXXXXXooooooooXXXXX XXXXXXXX oXXXX",
" XXXXXXXXXXXXXXXXXX. XXXXXXXX XXXXXXXXXXXXXXXXXX. XXXXXXXX XXXXX",
" .XXXXXXXXXXXXXXXXX. XXXXXXX. .XXXXXXXXXXXXXXXXX. XXXXXX.. .XXXX",
"  .XX..............   X.....   .XX..............   XX....   .XX.",
"                                                                ",
"oooXXXXXX    ooooooooXX    oooooXXXXXX    ooooooooXX    oooooXXX",
"XXXXXXXXX.  oXXXooooXXXX  ooXXXXXXXXXX.  oXXXooooXXXX  ooXXXXXXX",
"XoooooXXXX  XXXXXXXXXXXX  XXXXoooooXXXX  XXXXXXXXXXXX  XXXXooooo",
"XXXXXXXXX.  .XXXXXXXXXX.  .XXXXXXXXXXX.  .XXXXXXXXXX.  .XXXXXXXX",
".........    ...XXXXX..    ...........    ...XXXXX..    ........",
"                                                                ",
"XX    ooooooooooooXXXXX   ooooXX   ooooooooooooXXXXX    ooXXX   ",
"XXX  ooXXXXXXXXXXXXXXXXX ooXXXXXX ooXXXXXXXXXXXXXXXXX  oXXXXXX o",
"XXX  oXXXXXooooooooXXXXX XXXXXXXX oXXXXXooooooooXXXXX  XXXXXXX o",
"XX.  XXXXXXXXXXXXXXXXXX. XXXXXXXX XXXXXXXXXXXXXXXXXX.  XXXXXXX X",
"..   .XXXXXXXXXXXXXXXXX. XXXXXXX. .XXXXXXXXXXXXXXXXX.  XXXXXX. .",
"      .XX..............   ......   .XX..............    XX...   ",
"                                                                ",
"  oooooXXXXXX    ooooooooXX    oooooXXXXXX    ooooooooXX    oooo",
" ooXXXXXXXXXX.  oXXXooooXXXX  ooXXXXXXXXXX.  oXXXooooXXXX  ooXXX",
" XXXXoooooXXXX  XXXXXXXXXXXX  XXXXoooooXXXX  XXXXXXXXXXXX  XXXXo",
" .XXXXXXXXXXX.  .XXXXXXXXXX.  .XXXXXXXXXXX.  .XXXXXXXXXX.  .XXXX",
"  ...........    ...XXXXX..    ...........    ...XXXXX..    ....",
"                                                                "
};
