/* XPM */
static char *_c1d9d3c732148d8af6ac03902efe979AEJqLEcYRGOEuyvO[] = {
/* columns rows colors chars-per-pixel */
"64 64 34 1 ",
"  c #050030",
". c #06003F",
"X c #08004E",
"o c #09005D",
"O c #0B006C",
"+ c #0C006C",
"@ c #0B007B",
"# c #0C007B",
"$ c #0D008A",
"% c #0E0099",
"& c #110099",
"* c #0F00A8",
"= c #1300A8",
"- c #0F00B7",
"; c #1000B7",
": c #1100C6",
"> c #1200D5",
", c #1300E4",
"< c #1400F3",
"1 c #1803FF",
"2 c #2612FF",
"3 c #3421FF",
"4 c #4230FF",
"5 c #503FFF",
"6 c #5E4EFF",
"7 c #6C5DFF",
"8 c #7A6CFF",
"9 c #887BFF",
"0 c #968AFF",
"q c #998AFF",
"w c #A499FF",
"e c #B2A8FF",
"r c #C0B7FF",
"t c #CDC6FF",
/* pixels */
"1<<<,<<<<<<<<<<<<<<<<<<<<<<<::::<<<<<<<<<<<<<<<1111<<<<<<<<<<<<<",
"1<<<,<<<<<<<<<<<<:*%$;>,<<1<::;:<<<>;*$%%%*;>,<1111<<<<<<<<<<<<<",
"1<<<,<<13467542<<:*;;<211<12,,>:<<<;%$O%%%*;>,<111<>:;***%%*;><<",
"<,<<<335990064311>*;;<211<12<<,><<>%#OO%%%*;>,<<<:;*%;*%$##%;><<",
",,<<1468ew00643341,<<57665544321121*%**<,,<<2221<;*%$;*%$##%;><<",
",,<45808ew0731<3444679976544211<22<*;,3877644321<;*%$;*%$##%;,11",
",,156907974,:;:3445556555542,>>,31,>>158776651,;%.X+$<<,>::>,111",
"<126667332<;;;;233566655554<;;;>5332<358776651,;#Xo@;<<<<>>>>111",
"<560054<<<<;;;;<<12331<<<<,:%*;>44541112221<,>:*#o+$:<<<<::::111",
"167761<,,,,,,,,<<12221<<<<,:;;:,34675421<<<<,>:*#oO$:<<<,;;;:<<<",
"1666511<<,,,,,,<<1111<<<<<,:::><235655321<<<<<<2<<<><<<<:*##*:<<",
"1558711<<,<<,>><<1111<<<>>::,,<<<13455321<<<1113222<<<<<:;$$;:<<",
"1116533<<,<,>::<<<<<<<<<;;;;<<<<<<<123321<112213222<<<<<::%%::<<",
"<<<223311<<;;;;<<<<<<<<<****<<<<<<<<<1111<445514333<<,,,:>**::<<",
"<<<3333<<<1>>>:<2222<<<<****<<<<<<<<<<<<<<667713222<,>::>,<,,,,<",
"<<<34441<<2<<1,15444<<<<::::<<<<<,>>>,<<<<6666<4444<:%$$;,<::::<",
"<<<12221,,123643744645641<,,<,:;%%*;>,22225555<4444<:$##*,,;;;:<",
"<2234221>><247759646456421<,>:**%%*;>,33332222<3333<:%$$;,,;;;:<",
"<3378551;;:,3686974655531<<,>:**%%*;><4443<<<<<2222<>:::,<,;;;:<",
"<348854<;;;>24878624422<,<<,>:**%*:><36663<<<<<<111123331<,>>>,<",
"<348854<::::<<689822<*%%*,<,>>>,<<<<145541<<<<<<121123442<<>>>><",
"<126654<>>>><<789922<;$$%:<<<<<<<<<<24331,<<<<<<133344442,,::>><",
"<<1111<1111<<<6666<<,;%$$;>,<<<:;*$;,122<,<<<<<<14456332<,,>>,,<",
"1111<<<2211,,<5555<<<,:;*;>,<<<::;;,11<<>,<<<<<<<556611<,>>:>,,<",
"1111<<<2322<,<3331>>>1,>:;>,<12>>=#*-:>,>,<<<<<<<456621<%$$$,<<<",
"1111<<<13221,<<<<>;;;><,>>>,<12>>=#*%&**;>,<<<<<<334411<oooO111<",
"112211<;>::1,2222>***:<<11<<>,<,2<,,:;***;****:>,2224222oooO111<",
"<<2222<*::>314332:$$%;<<2322<11,1,;;*%***;****:>,<<<2222OOO#111<",
"<<4444<*;;>324332<%%**<<1233<<,><<<<,:;>>,>***:>,<<<2222;;;:2221",
"<<5555<;;;14351342:;;;<<<<23<<,><<<<222521,***:>,<<<2222<<<<1111",
"<<45551<:*,><3<232>:::<<<,<1121<<<<14446333<22<<<<:;;;,<<<<<1111",
"<<45551<;#*%:31353<,>:,,,,,,,<1222158886333<22<<<<;$##;,44441111",
"<<45551<;o#O%424621<,>,,,,,,134532269983<<<<<<<<<<;$##;,446622<<",
"<<34441<;o..#4666<<<<,,,,,23686633378762111<<<<<<<;$##;,440066<<",
"<<3333<<,*%%*7888<<<<,,,,<34786644476544322>,<<<<<,:;;:,44ww77<<",
"<<23331<<>::>6ww04<<<<;;;;3478564453212652<;:<<<<<<<<<<<<<7777<<",
"<<<2222<<<,,16ww94<<<<;;;;34552334421<2652,*;,<<<<11<<<<<<5555<<",
"1113222<<<<<25ww96<<<<****<<<<<12221<<2541:%*><<<121<<<<<<3333<<",
"1113222<<<<<228866<<<<$$$$<<<<<1111<<<21<>%**:,,121<<<<2227555<<",
"1112111<<<<<113322<<<,;;;:<<<<<,,,,<<<<,>>;:**:>21<<<<36669666<<",
"1111<<<<<<<<<<2222<<<;$$$:<<<<<,,,,<<<<,>>:>;;:>1<<<<<58880777<<",
"<>>>><<<<<<<<>>>><<<<*%%%,<<<<>>>><<,,,>>>>,::::<<<:::39999666<<",
"<>,,,1<<<<<<<>,,,1<<<:>,,1<<<,:::><<,;;;<3<<>>>><<<:::48884333<<",
"<>1113<::::<<>,,,1<<<<1221<<1,::;><<,;;,33<<<<<<<<<:::25552222<<",
"<>1113<::::<<>,,,1<1256552<<<>>,3554,;;,<<<<<<<<<<<:::<3331111<<",
"<<3333<::::<<<111111265551<<,:,17w972::::<<,,,,<<<<<<<2222<<<<<<",
"<<2222<:::,222<<<122<1<<2<<<,1328w972<<<<<1,,,><<<<<<<1111<<<<<<",
"<<<<<<<<<<3333<<<122>:;;<<22<3329w972<<<<<1,,,><<<<<<<<<3335222<",
"<<<<<<<<<25553<<<121*#O#>14432,<24432<<<<,<1121<<<<<<<<14447444<",
"111<<<<<136653<<<221%X .*,4443<<<<<<<<<<,>,1232<<<<<<<<36668555<",
"222<<<<<134431<<,<,>*OoO*,4443<<<<<<<<,>:;:24551<>>>><<36670776<",
"333<<<<<13332<<<:>:;:$#$*,2<:*%;,<<,>:;;;;:246732,>>><<33346665<",
"444<<<<<1111<<<,*;**>;*;:><>*$O#%%***;;;;:><2347632>><<22235554<",
"666<1111<<<<<<,>%%%*,,<<<<<>*$O#%%***;;;:>,12348843>:<<<<<26664<",
"555<25553<<<<<,>**;:<<<<<<<>*$O#%%***;:>,<<<<120w8q218333>14443<",
"444<58883<<<<<,;**;,<<<<<<<<<,:;*%*;:,<<<<<<<<1908q43t099<23332<",
"333<69993<<,>>:#$$%<<<<<<<<<<<<<<<<<<<<<<<<<<<2675643t099<22221<",
"<<<38w961><:;;;$%%%<<<<<<<<<<<<<<<<<<<<<<<<<<13664544tewe3211111",
"<<148852>><:;;;$%%%<<<<<<<<,1235321<<<245643335432<2269806321111",
"<<58992,>><:;;;*;;;<<<<<<<<,1235321<<<245643334321<<<<2488641111",
"<<8www2,,,<>>>><<<<<<<<<<<<,1235321<2246564333321<<<<<39rr041111",
"<<88881111<<<<<<<<12345587531235334465565643322112221128w093<<<<",
"<<777711,,>><<<<<<1234558754<12455656532<<<<<<<<122211280982<<<<",
"<<333311::;;<<<<<<1234558754<12455656532<<<<<<<<12221126654<<<<<"
};
