/* XPM */
static char *c194dcb7c2514c35d7dc643f29a560b7t5ja6Kzxu4J5gqLc[] = {
/* columns rows colors chars-per-pixel */
"32 32 5 1 ",
"  c None",
". c black",
"X c #191919",
"o c LightGray",
"O c white",
/* pixels */
"           X........X           ",
"        X..............X        ",
"       .....OOOOOOOO.....       ",
"     X...oOOOOOOOOOOOOo...X     ",
"    X..oOOOOOOOOOOOOOOOOo..X    ",
"    ..oOOOOOOOOOOOOOOOOOOo..    ",
"  X..oOOOOOOOOOOOOOOOOOOOOo..X  ",
"  ..OOOOOOOOOOOOOOOOOOOOOOOO..  ",
" X..OOOOOOOOOOOOOOOOOOOOOOOO..X ",
" ..oOOOOOOOOOOOOOOOOOOOOOOOOo.. ",
" ..OOOOOOOOOOOOOOOOOOOOOOOOOO.. ",
" ..OOOOOOOOOOOOOOOOOOOOOOOOOO.. ",
"..oOOOOOOOOOOOOOOOOOOOOOOOOOOo..",
"..OOOOOOOOOOOOOOOOOOOOOOOOOOOO..",
"..OOOOOOOOOOOOOOOOOOOOOOOOOOOO..",
"..OOOOOOOOOOOOOOOOOOOOOOOOOOOO..",
"..OOOOOOOOOOOOOOOOOOOOOOOOOOOO..",
"..OOOOOOOOOOOOOOOOOOOOOOOOOOOO..",
"..OOOOOOOOOOOOOOOOOOOOOOOOOOOO..",
"..OOOOOOOOOOOOOOOOOOOOOOOOOOOO..",
"X..OOOOOOOOOOOOOOOOOOOOOOOOOO..X",
" ..OOOOOOOOOOOOOOOOOOOOOOOOOO.. ",
" ..oOOOOOOOOOOOOOOOOOOOOOOOOo.. ",
" X..OOOOOOOOOOOOOOOOOOOOOOOO..X ",
"  ..oOOOOOOOOOOOOOOOOOOOOOOo..  ",
"   ...OOOOOOOOOOOOOOOOOOOO...   ",
"   X...oOOOOOOOOOOOOOOOOo...X   ",
"    X...oOOOOOOOOOOOOOOo...X    ",
"     X....oOOOOOOOOOOo....X     ",
"      X.....OOOOOOOO.....X      ",
"         ..............         ",
"            ........            "
};
