/* XPM */
static char *ec8f8c8bd96045e9932e38824cd35604jsovQ4miCjeDmhK8[] = {
/* columns rows colors chars-per-pixel */
"64 64 4 1 ",
"  c #14121D",
". c #1B2447",
"X c #7864C6",
"o c #CEAAED",
/* pixels */
"  oooo  oooo   oooo  oooo   oooo  oooo   oooo  oooo   oooo  oooo",
" oXXXX oXXXX  oXXXX oXXXX  oXXXX oXXXX  oXXXX oXXXX  oXXXX oXXXX",
" oXXXX oXXXX  oXXXX oXXXX  oXXXX oXXXX  oXXXX oXXXX  oXXXX oXXXX",
" oXXXX oXXXX  oXXXX oXXXX  oXXXX oXXXX  oXXXX oXXXX  oXXXX oXXXX",
" oXXXX.oXXXX  oXXXX.oXXXX  oXXXX.oXXXX  oXXXX.oXXXX  oXXXX.oXXXX",
"     ...          ...          ...          ...          ...    ",
"  oooo. oooo   oooo. oooo   oooo. oooo   oooo. oooo   oooo. oooo",
" oXXXX oXXXX  oXXXX oXXXX  oXXXX oXXXX  oXXXX oXXXX  oXXXX oXXXX",
" oXXXX oXXXX  oXXXX oXXXX  oXXXX oXXXX  oXXXX oXXXX  oXXXX oXXXX",
" oXXXX oXXXX  oXXXX oXXXX  oXXXX oXXXX  oXXXX oXXXX  oXXXX oXXXX",
" oXXXX oXXXX  oXXXX oXXXX  oXXXX oXXXX  oXXXX oXXXX  oXXXX oXXXX",
"                                                                ",
"                                                                ",
"  oooo  oooo   oooo  oooo   oooo  oooo   oooo  oooo   oooo  oooo",
" oXXXX oXXXX  oXXXX oXXXX  oXXXX oXXXX  oXXXX oXXXX  oXXXX oXXXX",
" oXXXX oXXXX  oXXXX oXXXX  oXXXX oXXXX  oXXXX oXXXX  oXXXX oXXXX",
" oXXXX oXXXX  oXXXX oXXXX  oXXXX oXXXX  oXXXX oXXXX  oXXXX oXXXX",
" oXXXX.oXXXX  oXXXX.oXXXX  oXXXX.oXXXX  oXXXX.oXXXX  oXXXX.oXXXX",
"     ...          ...          ...          ...          ...    ",
"  oooo. oooo   oooo. oooo   oooo. oooo   oooo. oooo   oooo. oooo",
" oXXXX oXXXX  oXXXX oXXXX  oXXXX oXXXX  oXXXX oXXXX  oXXXX oXXXX",
" oXXXX oXXXX  oXXXX oXXXX  oXXXX oXXXX  oXXXX oXXXX  oXXXX oXXXX",
" oXXXX oXXXX  oXXXX oXXXX  oXXXX oXXXX  oXXXX oXXXX  oXXXX oXXXX",
" oXXXX oXXXX  oXXXX oXXXX  oXXXX oXXXX  oXXXX oXXXX  oXXXX oXXXX",
"                                                                ",
"                                                                ",
"  oooo  oooo   oooo  oooo   oooo  oooo   oooo  oooo   oooo  oooo",
" oXXXX oXXXX  oXXXX oXXXX  oXXXX oXXXX  oXXXX oXXXX  oXXXX oXXXX",
" oXXXX oXXXX  oXXXX oXXXX  oXXXX oXXXX  oXXXX oXXXX  oXXXX oXXXX",
" oXXXX oXXXX  oXXXX oXXXX  oXXXX oXXXX  oXXXX oXXXX  oXXXX oXXXX",
" oXXXX.oXXXX  oXXXX.oXXXX  oXXXX.oXXXX  oXXXX.oXXXX  oXXXX.oXXXX",
"     ...          ...          ...          ...          ...    ",
"  oooo. oooo   oooo. oooo   oooo. oooo   oooo. oooo   oooo. oooo",
" oXXXX oXXXX  oXXXX oXXXX  oXXXX oXXXX  oXXXX oXXXX  oXXXX oXXXX",
" oXXXX oXXXX  oXXXX oXXXX  oXXXX oXXXX  oXXXX oXXXX  oXXXX oXXXX",
" oXXXX oXXXX  oXXXX oXXXX  oXXXX oXXXX  oXXXX oXXXX  oXXXX oXXXX",
" oXXXX oXXXX  oXXXX oXXXX  oXXXX oXXXX  oXXXX oXXXX  oXXXX oXXXX",
"                                                                ",
"                                                                ",
"  oooo  oooo   oooo  oooo   oooo  oooo   oooo  oooo   oooo  oooo",
" oXXXX oXXXX  oXXXX oXXXX  oXXXX oXXXX  oXXXX oXXXX  oXXXX oXXXX",
" oXXXX oXXXX  oXXXX oXXXX  oXXXX oXXXX  oXXXX oXXXX  oXXXX oXXXX",
" oXXXX oXXXX  oXXXX oXXXX  oXXXX oXXXX  oXXXX oXXXX  oXXXX oXXXX",
" oXXXX.oXXXX  oXXXX.oXXXX  oXXXX.oXXXX  oXXXX.oXXXX  oXXXX.oXXXX",
"     ...          ...          ...          ...          ...    ",
"  oooo. oooo   oooo. oooo   oooo. oooo   oooo. oooo   oooo. oooo",
" oXXXX oXXXX  oXXXX oXXXX  oXXXX oXXXX  oXXXX oXXXX  oXXXX oXXXX",
" oXXXX oXXXX  oXXXX oXXXX  oXXXX oXXXX  oXXXX oXXXX  oXXXX oXXXX",
" oXXXX oXXXX  oXXXX oXXXX  oXXXX oXXXX  oXXXX oXXXX  oXXXX oXXXX",
" oXXXX oXXXX  oXXXX oXXXX  oXXXX oXXXX  oXXXX oXXXX  oXXXX oXXXX",
"                                                                ",
"                                                                ",
"  oooo  oooo   oooo  oooo   oooo  oooo   oooo  oooo   oooo  oooo",
" oXXXX oXXXX  oXXXX oXXXX  oXXXX oXXXX  oXXXX oXXXX  oXXXX oXXXX",
" oXXXX oXXXX  oXXXX oXXXX  oXXXX oXXXX  oXXXX oXXXX  oXXXX oXXXX",
" oXXXX oXXXX  oXXXX oXXXX  oXXXX oXXXX  oXXXX oXXXX  oXXXX oXXXX",
" oXXXX.oXXXX  oXXXX.oXXXX  oXXXX.oXXXX  oXXXX.oXXXX  oXXXX.oXXXX",
"     ...          ...          ...          ...          ...    ",
"  oooo. oooo   oooo. oooo   oooo. oooo   oooo. oooo   oooo. oooo",
" oXXXX oXXXX  oXXXX oXXXX  oXXXX oXXXX  oXXXX oXXXX  oXXXX oXXXX",
" oXXXX oXXXX  oXXXX oXXXX  oXXXX oXXXX  oXXXX oXXXX  oXXXX oXXXX",
" oXXXX oXXXX  oXXXX oXXXX  oXXXX oXXXX  oXXXX oXXXX  oXXXX oXXXX",
" oXXXX oXXXX  oXXXX oXXXX  oXXXX oXXXX  oXXXX oXXXX  oXXXX oXXXX",
"                                                                "
};
