/* XPM */
static char *result[] = {
/* columns rows colors chars-per-pixel */
"128 128 80 1 ",
"  c black",
". c #00030C",
"X c #01061B",
"o c #101010",
"O c #010A2A",
"+ c #000B2A",
"@ c #030C39",
"# c #020D39",
"$ c #000F39",
"% c gray22",
"& c #040F48",
"* c #031048",
"= c #021148",
"- c #011248",
"; c #051256",
": c #041357",
"> c #031457",
", c #021557",
"< c #011657",
"1 c #051666",
"2 c #041766",
"3 c #021966",
"4 c #011A66",
"5 c #001B66",
"6 c #071872",
"7 c #051A75",
"8 c #021D75",
"9 c #011E75",
"0 c #001F75",
"q c #F50505",
"w c #32F32B",
"e c #6DF505",
"r c #F5BE05",
"t c #F3E92B",
"y c #061D82",
"u c #071C84",
"i c #061D84",
"p c #081F92",
"a c #022184",
"s c #062192",
"d c #072093",
"f c #022593",
"g c #012693",
"h c #002793",
"j c #0724A1",
"k c #0922A0",
"l c #0823A2",
"z c #0229A2",
"x c #012AA2",
"c c #0A25AE",
"v c #0926B0",
"b c #0827B0",
"n c #0926B1",
"m c #022DB1",
"M c #012EB1",
"N c #0A29BF",
"B c #092ABF",
"V c #1F42B7",
"C c #345FBB",
"Z c #0A29C0",
"A c #0B2CCE",
"S c #0A2DCE",
"D c #0132C0",
"F c #0235CF",
"G c #0C2FDC",
"H c #0239DE",
"J c #1300E6",
"K c #0D32EB",
"L c #153AF2",
"P c #1F57FD",
"I c #2250E9",
"U c #2346F3",
"Y c #3152F4",
"T c #4F6AF6",
"R c #1FB7B3",
"E c #0CE9E5",
"W c #89D9D7",
"Q c #8AF4F7",
"! c #DAE6DA",
"~ c #E5F1F1",
/* pixels */
"77777777lllllllliiiiiiii7777777777777777OOOOXXXX>>>>>>>>7777iiii2222XXXXXXXX>>>>2222iiiiddddiiii22222222777777777777AAAAAAAA7777",
"77777777lllllllliiiiiiii7777777777777777OOOOXXXX>>>>>>>>7777iiii2222XXXXXXXX>>>>2222iiiiddddiiii22222222777777777777AAAAAAAA7777",
"77777777lllllllliiiiiiii7777777777777777OOOOXXXX>>>>>>>>7777iiii2222XXXXXXXX>>>>2222iiiiddddiiii22222222777777777777AAAAAAAA7777",
"77777777lllllllliiiiiiii7777777777777777OOOOXXXX>>>>>>>>7777iiii2222XXXXXXXX>>>>2222iiiiddddiiii22222222777777777777AAAAAAAA7777",
"77777777KKKKKKKKiiii,,,,####>>>>22227777<<<<;;;;2222>>>>7777dddd7777XXXX####ddddddddddddllllddddiiiidddd2222>>>>2222PPPPTTTTiiii",
"77777777KKKKKKKKiiii,,,,####>>>>22227777<<<<;;;;2222>>>>7777dddd7777XXXX####ddddddddddddllllddddiiiidddd2222>>>>2222PPPPTTTTiiii",
"77777777KKKKKKKKiiii,,,,####>>>>22227777<<<<;;;;2222>>>>7777dddd7777XXXX####ddddddddddddllllddddiiiidddd2222>>>>2222PPPPTTTTiiii",
"77777777KKKKKKKKiiii,,,,####>>>>22227777<<<<;;;;2222>>>>7777dddd7777XXXX####ddddddddddddllllddddiiiidddd2222>>>>2222PPPPTTTTiiii",
"7777llllKKKKZZZZ7777====1111ZZZZAAAAllllllllnnnniiiiiiiillllAAAAnnnn7777ddddnnnnlllliiii77772222iiiinnnn....    ====ccccFFFFnnnn",
"7777llllKKKKZZZZ7777====1111ZZZZAAAAllllllllnnnniiiiiiiillllAAAAnnnn7777ddddnnnnlllliiii77772222iiiinnnn....    ====ccccFFFFnnnn",
"7777llllKKKKZZZZ7777====1111ZZZZAAAAllllllllnnnniiiiiiiillllAAAAnnnn7777ddddnnnnlllliiii77772222iiiinnnn....    ====ccccFFFFnnnn",
"7777llllKKKKZZZZ7777====1111ZZZZAAAAllllllllnnnniiiiiiiillllAAAAnnnn7777ddddnnnnlllliiii77772222iiiinnnn....    ====ccccFFFFnnnn",
"7777AAAAgggg####77772222iiiiZZZZAAAAllll777777777777llllNNNNvvvviiii2222777777777777>>>>====>>>>nnnnAAAAXXXX    XXXX77777777nnnn",
"7777AAAAgggg####77772222iiiiZZZZAAAAllll777777777777llllNNNNvvvviiii2222777777777777>>>>====>>>>nnnnAAAAXXXX    XXXX77777777nnnn",
"7777AAAAgggg####77772222iiiiZZZZAAAAllll777777777777llllNNNNvvvviiii2222777777777777>>>>====>>>>nnnnAAAAXXXX    XXXX77777777nnnn",
"7777AAAAgggg####77772222iiiiZZZZAAAAllll777777777777llllNNNNvvvviiii2222777777777777>>>>====>>>>nnnnAAAAXXXX    XXXX77777777nnnn",
"iiiinnnn&&&&$$$$iiii>>>>iiiiiiii222277777777iiiiddddlllldddd2222>>>>2222iiiiiiii7777>>>>>>>>7777ZZZZZZZZ7777XXXXXXXXZZZZZZZZiiii",
"iiiinnnn&&&&$$$$iiii>>>>iiiiiiii222277777777iiiiddddlllldddd2222>>>>2222iiiiiiii7777>>>>>>>>7777ZZZZZZZZ7777XXXXXXXXZZZZZZZZiiii",
"iiiinnnn&&&&$$$$iiii>>>>iiiiiiii222277777777iiiiddddlllldddd2222>>>>2222iiiiiiii7777>>>>>>>>7777ZZZZZZZZ7777XXXXXXXXZZZZZZZZiiii",
"iiiinnnn&&&&$$$$iiii>>>>iiiiiiJJJJ2277777777iiiiddddlllldddd2222>>>>2222iiiiiiii7777>>>>>>>>7777ZZZZZZZZ77qqqqqqqqXXZZZZZZZZiiii",
"llllllllXXXX4444nnnn2222ZZZZZZJJJJ777777>>>>2222ddddiiii7777777777777777iiiillllddddiiiiiiii77772222222277qqqqqqqq22GGGGAAAA7777",
"llllllllXXXX4444nnnn2222ZZZZZZJJJJ777777>>>>2222ddddiiii7777777777777777iiiillllddddiiiiiiii77772222222277qqqqqqqq22GGGGAAAA7777",
"llllllllXXXX4444nnnn2222ZZZZZZJJJJ777777>>>>2222ddddiiii7777777777777777iiiillllddddiiiiiiii77772222222277qqqqqqqq22GGGGAAAA7777",
"llllllllXXXX4444nnnn2222ZZZZZZJJJJJJJJ77>>>>2222dd!!!!!!!!!!!!!!!!!!!!!!!!!!!!llddddiiiiiiii777722qqqqqqqq77>>>>2222GGGGAAAA7777",
"dddddddd::::ZZZZGGGG7777ddddddJJJJJJJJ22====2222ii!!!!!!!!!!!!!!!!!!!!!!!!!!!!nniiii>>>>iiii>>>>OOqqqqqqqq7777777777dddddddd7777",
"dddddddd::::ZZZZGGGG7777ddddddJJJJJJJJ22====2222ii!!!!!!!!!!!!!!!!!!!!!!!!!!!!nniiii>>>>iiii>>>>OOqqqqqqqq7777777777dddddddd7777",
"dddddddd::::ZZZZGGGG7777ddddddJJJJJJJJ22====2222ii!!!!!!!!!!!!!!!!!!!!!!!!!!!!nniiii>>>>iiii>>>>OOqqqqqqqq7777777777dddddddd7777",
"dddddddd::::ZZZZGGGG7777dddddddd77JJJJJJJJ==2222iiii7777777777777777777777!!!!!!!!ii>>>>iiii>>qqqqqqqqqqqq7777777777dddddddd7777",
"7777iiiiZZZZHHHHzzzz77777777777777JJJJJJJJ22NNNNGGGGddddiiiiiiiiiiiiddddii!!!!!!!!22====iiii##qqqqqqqqqqqq777777>>>>3333iiii7777",
"7777iiiiZZZZHHHHzzzz77777777777777JJJJJJJJ22NNNNGGGGddddiiiiiiiiiiiiddddii!!!!!!!!22====iiii##qqqqqqqqqqqq777777>>>>3333iiii7777",
"7777iiiiZZZZHHHHzzzz77777777777777JJJJJJJJ22NNNNGGGGddddiiiiiiiiiiiiddddii!!!!!!!!22====iiii##qqqqqqqqqqqq777777>>>>3333iiii7777",
"7777iiiiZZZZHHHHzzzz777777777777777722JJJJJJJJNNGGGGddddiiiiiiiiiiiiddddiiiidddd2222====iiqqqqqqqq..>>>>77777777>>>>3333iiii7777",
"7777dddd99995555aaaa77777777llllllll>>JJJJJJJJnnAAAAddddiiii2222ddddKKKKZZZZlllldddd7777ddqqqqqqqq2277777777iiii7777zzzznnnn7777",
"7777dddd99995555aaaa77777777llllllll>>JJJJJJJJnnAAAAddddiiii2222ddddKKKKZZZZlllldddd7777ddqqqqqqqq2277777777iiii7777zzzznnnn7777",
"7777dddd99995555aaaa77777777llllllll>>JJJJJJJJnnAAAAddddiiii2222ddddKKKKZZZZlllldddd7777ddqqqqqqqq2277777777iiii7777zzzznnnn7777",
"7777dddd99995555aaaa77777777llllllll>>>>>>JJJJJJJJAAddddiiii2222ddddKKKKZZZZllllddqqqqqqqqddyyyy222277777777iiii7777zzzznnnn7777",
"7777kkkk%%%%1111llll77777777nnnnnnnnOOOOOOJJJJJJJJ7777777777####2222NNNNllllllllddqqqqqqqqiilllldddd7777nnnnAAAAnnnnZZZZllll7777",
"7777kkkk%%%%1111llll77777777nnnnnnnnOOOOOOJJJJJJJJ7777777777####2222NNNNllllllllddqqqqqqqqiilllldddd7777nnnnAAAAnnnnZZZZllll7777",
"7777kkkk%%%%1111llll77777777nnnnnnnnOOOOOOJJJJJJJJ7777777777####2222NNNNllllllllddqqqqqqqqiilllldddd7777nnnnAAAAnnnnZZZZllll7777",
"7777kkkk%%%%1111llll77777777nnnnnnnnOOOOOOOO77JJJJ7777EEEEEEEEEEEE~~~~EEEEEEEEEEEEdd7777iiiilllldddd7777nnnnAAAAnnnnZZZZllll7777",
"7777zzzzmmmmlllldddd77777777AAAAAAAAOOOOOOOO77JJJJAAAAEEEEEEEEEEEE~~~~EEEEEEEEEEEE7777777777222222227777nnnnZZZZnnnnuuuu::::7777",
"7777zzzzmmmmlllldddd77777777AAAAAAAAOOOOOOOO77JJJJAAAAEEEEEEEEEEEE~~~~EEEEEEEEEEEE7777777777222222227777nnnnZZZZnnnnuuuu::::7777",
"7777zzzzmmmmlllldddd77777777AAAAAAAAOOOOOOOO77JJJJAAAAEEEEEEEEEEEE~~~~EEEEEEEEEEEE7777777777222222227777nnnnZZZZnnnnuuuu::::7777",
"7777zzzzmmmmlllldddd77777777AA!!!!AAOOOOOOOO7777AAEEEEIIIIVVVVWWWWWWWWWWWWQQQQQQQQEEEE7777772222222277!!!!nnZZZZnnnnuuuu::::7777",
"7777iiii33333333iiii7777ddddLL!!!!GG>>>>####>>>>LLEEEEIIIIVVVVWWWWWWWWWWWWQQQQQQQQEEEE77iiii####OOOO77!!!!iiiiiiiiiippppuuuu7777",
"7777iiii33333333iiii7777ddddLL!!!!GG>>>>####>>>>LLEEEEIIIIVVVVWWWWWWWWWWWWQQQQQQQQEEEE77iiii####OOOO77!!!!iiiiiiiiiippppuuuu7777",
"7777iiii33333333iiii7777ddddLL!!!!GG>>>>####>>>>LLEEEEIIIIVVVVWWWWWWWWWWWWQQQQQQQQEEEE77iiii####OOOO77!!!!iiiiiiiiiippppuuuu7777",
"7777iiii33333333iiii7777ddddLLLLGGGG>>>>####>>EEEEIIIIIIIIWWWWWWWWWWWWWWWWWWWWQQQQQQQQEEEEii####OOOO7777iiiiiiiiiiiippppuuuu7777",
"7777dddd4444@@@@22227777ddddnnnnllllllll1111::EEEEIIIIIIIIWWWWWWWWWWWWWWWWWWWWQQQQQQQQEEEEll7777====7777ZZZZZZZZ7777nnnnnnnn7777",
"7777dddd4444@@@@22227777ddddnnnnllllllll1111::EEEEIIIIIIIIWWWWWWWWWWWWWWWWWWWWQQQQQQQQEEEEll7777====7777ZZZZZZZZ7777nnnnnnnn7777",
"7777dddd4444@@@@22227777ddddnnnnllllllll1111::EEEEIIIIIIIIWWWWWWWWWWWWWWWWWWWWQQQQQQQQEEEEll7777====7777ZZZZZZZZ7777nnnnnnnn7777",
"7777dddd4444@@@@222277!!!!!!!!nnllllllll11EEEEIIIIIIIIWWWWWWWWWWWWWWWWWWWWWWWWWWWWQQQQQQQQEEEE77====7777ZZ!!!!ZZ7777nnnnnnnn7777",
"7777ddddhhhh%%%%>>>>22!!!!!!!!iiiiiiiiii11EEEEIIIIIIIIWWWWWWWWWWWWWWWWWWWWWWWWWWWWQQQQQQQQEEEEAAllll7777nn!!!!nn7777333333337777",
"7777ddddhhhh%%%%>>>>22!!!!!!!!iiiiiiiiii11EEEEIIIIIIIIWWWWWWWWWWWWWWWWWWWWWWWWWWWWQQQQQQQQEEEEAAllll7777nn!!!!nn7777333333337777",
"7777ddddhhhh%%%%>>>>22!!!!!!!!iiiiiiiiii11EEEEIIIIIIIIWWWWWWWWWWWWWWWWWWWWWWWWWWWWQQQQQQQQEEEEAAllll7777nn!!!!nn7777333333337777",
"7777ddddhhhh%%%%>>>>2222iiiiiiiiiiiiiiEEEEIIIIIIIIWWWWWWWWWWWWrrrreeeerrrrWWWWWWWWWWWWQQQQQQQQEEEEll7777nn!!!!nn7777333333337777",
"7777iiiiMMMMxxxx####====ddddiiii7777>>EEEEIIIIIIIIWWWWWWWWWWWWrrrreeeerrrrWWWWWWWWWWWWQQQQQQQQEEEEdd777777!!!!77llllHHHHmmmm7777",
"7777iiiiMMMMxxxx####====ddddiiii7777>>EEEEIIIIIIIIWWWWWWWWWWWWrrrreeeerrrrWWWWWWWWWWWWQQQQQQQQEEEEdd777777!!!!77llllHHHHmmmm7777",
"7777iiiiMMMMxxxx####====ddddiiii7777>>EEEEIIIIIIIIWWWWWWWWWWWWrrrreeeerrrrWWWWWWWWWWWWQQQQQQQQEEEEdd777777!!!!77llllHHHHmmmm7777",
"7777iiiiMMMMxxxx####==!!!!ddiiii7777>>EEEEVVVVVVVVRRRRRRRRRRRRqqqqrrrrttttRRRRRRRRRRRRCCCCCCCCEEEEdd7777777777!!!!llHHHHmmmm7777",
"7777llllAAAAllll====dd!!!!ZZ77777777##EEEEVVVVVVVVRRRRRRRRRRRRqqqqrrrrttttRRRRRRRRRRRRCCCCCCCCEEEE77iiiiiiii77!!!!llUUUUGGGG7777",
"7777llllAAAAllll====dd!!!!ZZ77777777##EEEEVVVVVVVVRRRRRRRRRRRRqqqqrrrrttttRRRRRRRRRRRRCCCCCCCCEEEE77iiiiiiii77!!!!llUUUUGGGG7777",
"7777llllAAAAllll====dd!!!!ZZ77777777##EEEEVVVVVVVVRRRRRRRRRRRRqqqqrrrrttttRRRRRRRRRRRRCCCCCCCCEEEE77iiiiiiii77!!!!llUUUUGGGG7777",
"7777llllAAAAllll====ddddZZZZ77777777######EEEEVVVVVVVVRRRRRRRRrrrrJJJJrrrrRRRRRRRRCCCCCCCCEEEE>>7777iiiiiiii77!!!!llUUUUGGGG7777",
"7777ZZZZZZZZ77777777llllllll77777777XXXXXXEEEEVVVVVVVVRRRRRRRRrrrrJJJJrrrrRRRRRRRRCCCCCCCCEEEE227777iiiiiiii77!!!!77iiiiiiii7777",
"7777ZZZZZZZZ77777777llllllll77777777XXXXXXEEEEVVVVVVVVRRRRRRRRrrrrJJJJrrrrRRRRRRRRCCCCCCCCEEEE227777iiiiiiii77!!!!77iiiiiiii7777",
"7777ZZZZZZZZ77777777llllllll77777777XXXXXXEEEEVVVVVVVVRRRRRRRRrrrrJJJJrrrrRRRRRRRRCCCCCCCCEEEE227777iiiiiiii77!!!!77iiiiiiii7777",
"7777ZZZZZZZZ77777777ll!!!!ll77777777XXXXXXXX77EEEEVVVVRRRRRRRRRRRRRRRRRRRRRRRRRRRRCCCCEEEE2222227777iiiiiiii77777777iiiiiiii7777",
"7777ddddlllliiii7777>>!!!!>>7777iiii7777222277EEEEVVVVRRRRRRRRRRRRRRRRRRRRRRRRRRRRCCCCEEEE7777777777llllllll777777777777dddddddd",
"7777ddddlllliiii7777>>!!!!>>7777iiii7777222277EEEEVVVVRRRRRRRRRRRRRRRRRRRRRRRRRRRRCCCCEEEE7777777777llllllll777777777777dddddddd",
"7777ddddlllliiii7777>>!!!!>>7777iiii7777222277EEEEVVVVRRRRRRRRRRRRRRRRRRRRRRRRRRRRCCCCEEEE7777777777llllllll777777777777dddddddd",
"7777ddddlllliiii7777>>>>>>>>7777iiii77772222777777EEEEVVVVRRRRRRRRRRRRRRRRRRRRCCCCEEEEGG777777777777llllllll77!!!!777777dddddddd",
"7777OOOO4444GGGGllll2222>>>>2222iiiiddddiiii>>>>>>EEEEVVVVRRRRRRRRRRRRRRRRRRRRCCCCEEEEGGllll77777777nnnnZZZZii!!!!772222iiiidddd",
"7777OOOO4444GGGGllll2222>>>>2222iiiiddddiiii>>>>>>EEEEVVVVRRRRRRRRRRRRRRRRRRRRCCCCEEEEGGllll77777777nnnnZZZZii!!!!772222iiiidddd",
"7777OOOO4444GGGGllll2222>>>>2222iiiiddddiiii>>>>>>EEEEVVVVRRRRRRRRRRRRRRRRRRRRCCCCEEEEGGllll77777777nnnnZZZZii!!!!772222iiiidddd",
"7777OOOO4444GGGGllll22!!!!!!!!22iiiiddddiiii>>tttt>>77EEEEVVVVRRRRRRRRRRRRCCCCEEEE77GGGGllll77777777nnnnZZZZiiii77772222iiiidddd",
"7777####uuuuYYYYAAAA77!!!!!!!!==77777777llll77tttt##77EEEEVVVVRRRRRRRRRRRRCCCCEEEE77ZZZZnnnnddddddddjjjjlllldddd7777========7777",
"7777####uuuuYYYYAAAA77!!!!!!!!==77777777llll77tttt##77EEEEVVVVRRRRRRRRRRRRCCCCEEEE77ZZZZnnnnddddddddjjjjlllldddd7777========7777",
"7777####uuuuYYYYAAAA77!!!!!!!!==77777777llll77tttt##77EEEEVVVVRRRRRRRRRRRRCCCCEEEE77ZZZZnnnnddddddddjjjjlllldddd7777========7777",
"7777####uuuuYYYYAAAA7777========77777777lltttt77####7777>>EEEEVVVVRRRRCCCCEEEE>>77wwwwZZnnnnddddddddjjjjlllldddd7777========7777",
"iiii::::ffffKKKKllll7777XXXX    >>>>7777llttttdd>>>>>>>>OOEEEEVVVVRRRRCCCCEEEE7777wwwwddddddddddddddssssiiiilllldddd########7777",
"iiii::::ffffKKKKllll7777XXXX    >>>>7777llttttdd>>>>>>>>OOEEEEVVVVRRRRCCCCEEEE7777wwwwddddddddddddddssssiiiilllldddd########7777",
"iiii::::ffffKKKKllll7777XXXX    >>>>7777llttttdd>>>>>>>>OOEEEEVVVVRRRRCCCCEEEE7777wwwwddddddddddddddssssiiiilllldddd########7777",
"iiii::::ffffKKKKllll7777XXXX    >>>>77ttttlldddd>>>>>>>>OOOO..EEEERRRREEEE>>777777wwwwwwwwddddddddddssssiiiilllldddd########7777",
"++++ooooaaaannnn7777####        OOOO77tttt2222227777>>>>####>>EEEERRRREEEEiinnnnllwwwwwwwwnn77777777ssssBBBBZZZZllll****####7777",
"++++ooooaaaannnn7777####        OOOO77tttt2222227777>>>>####>>EEEERRRREEEEiinnnnllwwwwwwwwnn77777777ssssBBBBZZZZllll****####7777",
"++++ooooaaaannnn7777####        OOOO77tttt2222227777>>>>####>>EEEERRRREEEEiinnnnllwwwwwwwwnn77777777ssssBBBBZZZZllll****####7777",
"++++ooooaaaannnn7777####        OOtttt77222222227777>>>>####>>>>GGEEEEGGiiiinnnnllllnnwwwwwwwwwwww77ssssBBBBZZZZllll****####7777",
"........llllllll2222....XXXX====XXtttt      ####2222777777777777GGEEEEGGiiiiAAAAZZZZnnwwwwwwwwwwwwiijjjjBBBBBBBBAAAAnnnn>>>>7777",
"........llllllll2222....XXXX====XXtttt      ####2222777777777777GGEEEEGGiiiiAAAAZZZZnnwwwwwwwwwwwwiijjjjBBBBBBBBAAAAnnnn>>>>7777",
"........llllllll2222....XXXX====XXtttt      ####2222777777777777GGEEEEGGiiiiAAAAZZZZnnwwwwwwwwwwwwiijjjjBBBBBBBBAAAAnnnn>>>>7777",
"........llllllll2222....XXXX==tttttttt      ####2222777777777777GGGGGGGGiiiiAAAAZZZZnnnnnnnn77wwwwwwwwjjBBBBBBBBAAAAnnnn>>>>7777",
"********llllllll2222====2222iitttttttt  ####7777222277777777777722222222ddddnnnnllllnnnnllll77wwwwwwwwBBssssssssZZZZZZZZ77777777",
"********llllllll2222====2222iitttttttt  ####7777222277777777777722222222ddddnnnnllllnnnnllll77wwwwwwwwBBssssssssZZZZZZZZ77777777",
"********llllllll2222====2222iitttttttt  ####7777222277777777777722222222ddddnnnnllllnnnnllll77wwwwwwwwBBssssssssZZZZZZZZ77777777",
"********llllllll2222==tttttttttttt==    ####777722!!!!777777777722222222ddddnn!!!!!!!!nnllll7777llwwwwBBssssssssZZZZZZZZ77777777",
"3333----iiiillll777777tttttttttttt######llllllll77!!!!77777777772222====llllZZ!!!!!!!!nnllll7777ddwwwwddssssssss>>>>>>>>77777777",
"3333----iiiillll777777tttttttttttt######llllllll77!!!!77777777772222====llllZZ!!!!!!!!nnllll7777ddwwwwddssssssss>>>>>>>>77777777",
"3333----iiiillll777777tttttttttttt######llllllll77!!!!77777777772222====llllZZ!!!!!!!!nnllll7777ddwwwwddssssssss>>>>>>>>77777777",
"3333----iiiillll77ttttttttnnnnnn########llllllll77777777777777!!!!!!!!!!!!!!!!!!!!iinnnnllll7777ddddddddssssssss>>>>>>>>77777777",
"dddd7777iiiillll77ttttttttllllll########777777777777OOOOOOOO77!!!!!!!!!!!!!!!!!!!!77nnnnnnnn77777777bbbbbbbbssssXXXXXXXX77777777",
"dddd7777iiiillll77ttttttttllllll########777777777777OOOOOOOO77!!!!!!!!!!!!!!!!!!!!77nnnnnnnn77777777bbbbbbbbssssXXXXXXXX77777777",
"dddd7777iiiillll77ttttttttllllll########777777777777OOOOOOOO77!!!!!!!!!!!!!!!!!!!!77nnnnnnnn77777777bbbbbbbbssssXXXXXXXX77777777",
"dddd7777iiiillll77777777llllllll########777777777777OOOOOOOO77777777####1111llll7777nnnnnnnn77777777bbbbbbbbssssXXXXXXXX77777777",
"llllddddiiiiddddOOOOOOOO7777777777777777lllliiii====....XXXX77777777>>>>>>>>7777iiiinnnnZZZZllllllllSSSSbbbbllll11111111nnnniiii",
"llllddddiiiiddddOOOOOOOO7777777777777777lllliiii====....XXXX77777777>>>>>>>>7777iiiinnnnZZZZllllllllSSSSbbbbllll11111111nnnniiii",
"llllddddiiiiddddOOOOOOOO7777777777777777lllliiii====....XXXX77777777>>>>>>>>7777iiiinnnnZZZZllllllllSSSSbbbbllll11111111nnnniiii",
"llllddddiiiiddddOOOOOOOO7777777777777777lllliiii====....XXXX77777777>>>>>>>>7777iiiinnnnZZZZllllllllSSSSbbbbllll11111111nnnniiii",
"llll1111::::ddddOOOOOOOOiiiiiiii77777777llll2222OOOO>>>>7777iiiinnnnAAAAZZZZlllliiiiiiiillllnnnnlllldddd7777GGGGmmmm8888ZZZZdddd",
"llll1111::::ddddOOOOOOOOiiiiiiii77777777llll2222OOOO>>>>7777iiiinnnnAAAAZZZZlllliiiiiiiillllnnnnlllldddd7777GGGGmmmm8888ZZZZdddd",
"llll1111::::ddddOOOOOOOOiiiiiiii77777777llll2222OOOO>>>>7777iiiinnnnAAAAZZZZlllliiiiiiiillllnnnnlllldddd7777GGGGmmmm8888ZZZZdddd",
"llll1111::::ddddOOOOOOOOiiiiiiii77777777llll2222OOOO>>>>7777iiiinnnnAAAAZZZZlllliiiiiiiillllnnnnlllldddd7777GGGGmmmm8888ZZZZdddd",
"dddd33338888llll77777777iiiiiiii77772222777722222222iiiiiiiiddddAAAAYYYYKKKKdddd77777777iiiiiiii777777777777AAAA6666XXXXiiiiiiii",
"dddd33338888llll77777777iiiiiiii77772222777722222222iiiiiiiiddddAAAAYYYYKKKKdddd77777777iiiiiiii777777777777AAAA6666XXXXiiiiiiii",
"dddd33338888llll77777777iiiiiiii77772222777722222222iiiiiiiiddddAAAAYYYYKKKKdddd77777777iiiiiiii777777777777AAAA6666XXXXiiiiiiii",
"dddd33338888llll77777777iiiiiiii77772222777722222222iiiiiiiiddddAAAAYYYYKKKKdddd77777777iiiiiiii777777777777AAAA6666XXXXiiiiiiii",
"nnnnGGGGAAAAdddd22222222222277772222>>>>7777iiiiiiiillllddddiiiillllAAAAdddd####>>>>77777777777777770000MMMMAAAA3333====77777777",
"nnnnGGGGAAAAdddd22222222222277772222>>>>7777iiiiiiiillllddddiiiillllAAAAdddd####>>>>77777777777777770000MMMMAAAA3333====77777777",
"nnnnGGGGAAAAdddd22222222222277772222>>>>7777iiiiiiiillllddddiiiillllAAAAdddd####>>>>77777777777777770000MMMMAAAA3333====77777777",
"nnnnGGGGAAAAdddd22222222222277772222>>>>7777iiiiiiiillllddddiiiillllAAAAdddd####>>>>77777777777777770000MMMMAAAA3333====77777777",
"llllGGGGZZZZ7777222222222222777722222222777777777777dddddddd7777iiiiiiii2222====OOOO####>>>>>>>>----%%%%DDDDUUUUAAAAlllldddd7777",
"llllGGGGZZZZ7777222222222222777722222222777777777777dddddddd7777iiiiiiii2222====OOOO####>>>>>>>>----%%%%DDDDUUUUAAAAlllldddd7777",
"llllGGGGZZZZ7777222222222222777722222222777777777777dddddddd7777iiiiiiii2222====OOOO####>>>>>>>>----%%%%DDDDUUUUAAAAlllldddd7777",
"llllGGGGZZZZ7777222222222222777722222222777777777777dddddddd7777iiiiiiii2222====OOOO####>>>>>>>>----%%%%DDDDUUUUAAAAlllldddd7777",
"7777iiiiiiii77777777777777777777777777777777777777777777777777777777777777777777====####>>>>>>>>====>>>>iiiiAAAAAAAAlllldddd7777",
"7777iiiiiiii77777777777777777777777777777777777777777777777777777777777777777777====####>>>>>>>>====>>>>iiiiAAAAAAAAlllldddd7777",
"7777iiiiiiii77777777777777777777777777777777777777777777777777777777777777777777====####>>>>>>>>====>>>>iiiiAAAAAAAAlllldddd7777",
"7777iiiiiiii77777777777777777777777777777777777777777777777777777777777777777777====####>>>>>>>>====>>>>iiiiAAAAAAAAlllldddd7777"
};
