/* XPM */
static char *_6319ed9fbcb4813da1f3c4458dcbf57c7mQ5LkiQSsr41Z4[] = {
/* columns rows colors chars-per-pixel */
"64 64 9 1 ",
"  c black",
". c #403E3B",
"X c #47484D",
"o c #595652",
"O c #57585E",
"+ c #696A6A",
"@ c #847E87",
"# c #8B8C8C",
"$ c #A7A8A8",
/* pixels */
"                                                                ",
" oooooooooooo +++++ +++++++++++++++++++++++ @@@@@@ @@@@@@@@@@@@@",
" oooooooooooo +++++ ++OOOOOOOOOOOOOOOOOOOO+ @@@@@@ @@@@@@@@@@@@@",
"                    ++XXXXXXXXXXXXXXXXXXXX+                     ",
"$$$$$$$$$$$$$$$$$$$ ++XXXXXXXXXXXXXXXXXXXX+ $$$$$$$$$$$$$$$$$$$$",
"$$$$$$$$$$$$$$$$$$$ ++XXXXXXXXXXXXXXXXXXXX+ $$$$$$$$$$$$$$$$$$$$",
"+++++++++++++++++++ ++XXXXXXXXXXXXXXXXXXXX+ ++++++++++++++++++++",
"+++++++++++++++++++ ++XXXXXXXXXXXXXXXXXXXX+ ++++++++++++++++++++",
"+++++++++++++++++++ ++XXXXXXXXXXXXXXXXXXXX+ ++++++++++++++++++++",
"+++++++++++++++++++ ++XXXXXXXXXXXXXXXXXXXX+ ++++++++++++++++++++",
"+++++++++++++++++++ ++XXXXXXXXXXXXXXXXXXXX+ ++++++++++++++++++++",
"+++++++++++++++++++ ++XXXXXXXXXXXXXXXXXXXX+ ++++++++++++++++++++",
"                    ++OOOOOOOOOOOOOOOOOOOO+                     ",
" oooooooooooo @@@@@ ++OOOOOOOOOOOOOOOOOOOO+ oooooooooo +++++++++",
" oooooooooooo @@@@@ +++++++++++++++++++++++ oooooooooo +++++++++",
"                                                                ",
"ooo ++++++++++++++++ ooo O@+O@+++@O+@O oooooooo oooooooooooooooo",
"ooo ++++++++++++++++ ooo O@+O@+++@O+@O oooooooo oooooooooooooooo",
"                         O@+O@+++@O+@O                          ",
" @@@@@@@@@@@@ ++++++++++ O@+O@+++@O+@O +++++++++++++++ ooooooooo",
" @@@@@@@@@@@@ ++++++++++ O@+O@+++@O+@O +++++++++++++++ ooooooooo",
"                         O@+O@+++@O+@O                          ",
"@@@ @@@@@@@@@@@@@@@@ ooo O@+O@+++@O+@O oooooooo @@@@@@@@@@@@@@@@",
"@@@ @@@@@@@@@@@@@@@@ ooo O@+O@+++@O+@O oooooooo @@@@@@@@@@@@@@@@",
"                         O@+O@+++@O+@O                          ",
" oooooooooooo .......... O@+O@+++@O+@O @@@@@@@@@@@@@@@ ooooooooo",
" oooooooooooo .......... O@+O@+++@O+@O @@@@@@@@@@@@@@@ ooooooooo",
"                         O@+O@+++@O+@O                          ",
"ooo ++++++++++++++++ @@@ O@+O@+++@O+@O oooooooo oooooooooooooooo",
"ooo ++++++++++++++++ @@@ O@+O@+++@O+@O oooooooo oooooooooooooooo",
"                         O@+O@+++@O+@O                          ",
" @@@@@@@@@@@@ ++++++++++ O@+O@+++@O+@O @@@@@@@@@@@@@@@ +++++++++",
" @@@@@@@@@@@@ ++++++++++ O@+O@+++@O+@O @@@@@@@@@@@@@@@ +++++++++",
"                         O@+O@+++@O+@O                          ",
"@@@ oooooooooooooooo @@@ O@+O@+++@O+@O oooooooo @@@@@@@@@@@@@@@@",
"@@@ oooooooooooooooo @@@ O@+O@+++@O+@O oooooooo @@@@@@@@@@@@@@@@",
"                         O@+O@+++@O+@O                          ",
" oooooooooooo ++++++++++ O@+O@+++@O+@O +++++++++++++++ @@@@@@@@@",
" oooooooooooo ++++++++++ O@+O@+++@O+@O +++++++++++++++ @@@@@@@@@",
"                         O@+O@+++@O+@O                          ",
"... ++++++++++++++++ @@@ O@+O@+++@O+@O ........ ................",
"... ++++++++++++++++ @@@ O@+O@+++@O+@O ........ ................",
"                         O@+O@+++@O+@O                          ",
" oooooooooooo oooooooooo O@+O@+++@O+@O ooooooooooooooooooooooooo",
" oooooooooooo ooooooo    O@+O@+++@O+@O    oooooooooooooooooooooo",
"                     ###OO@+O@+++@O+@OO###                      ",
"... ............... #####O@+O@+++@O+@O##### @@@@@@@@@@@@@ ......",
"... ............... ######OOO@+++@OOO###### @@@@@@@@@@@@@ ......",
"                    ########OOOOOOO########                     ",
" ++++++++++++ @@@@@ ####################### oooooo ooooooooooooo",
" ++++++++++++ @@@@@ $$$$$$$$$$$$$$$$$$$$$$$ oooooo ooooooooooooo",
"                    +++++++++++++++++++++++                     ",
"... ooooooooooooooo ++XXXXXXXXXXXXXXXXXXX++ @@@@@@@@@@@@@ ......",
"... ooooooooooooooo ++XXXXXXXXXXXXXXXXXXX++ @@@@@@@@@@@@@ ......",
"                    ++XXXXXXXXXXXXXXXXXXX++                     ",
" @@@@@@@@@@@@ +++++ ++XXXXXXXXXXXXXXXXXXX++ oooooo @@@@@@@@@@@@@",
" @@@@@@@@@@@@ +++++ ++XXXXXXXXXXXXXXXXXXX++ oooooo @@@@@@@@@@@@@",
"                    ++XXXXXXXXXXXXXXXXXXX++                     ",
"ooo ............... ++XXXXXXXXXXXXXXXXXXX++ ............. oooooo",
"ooo ............... ++XXXXXXXXXXXXXXXXXXX++ ............. oooooo",
"                    ++OOOOOOOOOOOOOOOOOOO++                     ",
" ............ ..... ++OOOOOOOOOOOOOOOOOOO++ oooooo .............",
" ............ ..... +++++++++++++++++++++++ oooooo .............",
"                                                                "
};
