/* XPM */
static char *_ae18906d9224fece854efed954870d7kueBEcwa6Oh4Lwlg[] = {
/* columns rows colors chars-per-pixel */
"64 64 14 1 ",
"  c black",
". c #070E0E",
"X c #100E0E",
"o c #1F1D1A",
"O c #2E2C2B",
"+ c #222034",
"@ c #3B3937",
"# c #323C39",
"$ c #214549",
"% c #474542",
"& c #595652",
"* c #63605B",
"= c #37946E",
"- c #99E550",
/* pixels */
"--## -- = +##=-    --          --== --== +--        -#   --=#   ",
"=----==#---##=--&&&--&&&&&&& &&&----=-#-----&&&& &&&--#&&--=##&&",
"==--#=-#----=&#----&++---&&& &&&&--==-------=&&& &&&&----#==---#",
" ====-- =-==# =---==-+----      + ##-------=+---      --==-#----",
"##==---#==-=#==--=&--+&-&&&&& &&++&#--=--#--=----&&&&&&=---=#--=",
"##&#---##=--===--++--&&+++&&& &&&++++-==++--=+-#&&&&&&&&---=#--#",
"+ ##--=# #+----=++---+ ++++       ++ --=##--=####        ----##+",
"-+##--==+##+--#=-=----===&&&&&&&&&&&&+----=-&---=&&&&&&&& --##-#",
"----#+&---##-=&--=#-=+====&&&&&&&&&&&++--=#-=----=&&&&&&& &&+--#",
" --#+- ----=--+--=#==+ =              +  +--=--==+###        --#",
"&&==-- --==&--#=-====++&&&&             -&--=--==+####&&&&&&&&-#",
"##==--#--#&&--##=+&&=&     XXX XXXXXXXXX-- -=--##+===&&&&&-&&&&&",
"#---#-##----== ---                       ----=+#---===    --  + ",
"=----==-+--##-&----XX XXXXXXXXXXXXXXXX XXX--XX-=----&-&&&&--&&++",
"----+==--#&#--# -XXXX XXXXXXXXXXXXXXXX XXXXXX--==-  &--&&+--&&++",
"----- =--#  --                               -- =    =----== ---",
"#---=+&--#+&&-XXXXXXXXXXXXXXXXXXX XXXXXXXXXXXX-XXXXXX =--=+-+---",
"##&----&+#---XXXXXXXXXooooooooooo oooooooooooX XXXXXXX ==&--+=-=",
"## ---  - ----                                         +  --=+=#",
"=&+--=&--&&-XXXXXXXooooo oooooooooooooooo ooooooXXXXXXX++&=--=+#",
"===--#---=& XXXXXooooooo oooooooooooooooo ooooooooXXXX-=+++--=#+",
"#==--=---==                                           --=++--= +",
"---#==---&& XXX ooooooooooo ooooooooooooooooooooooo XXX----=#+--",
"-----=----& XXX ooooooooooo ooooooooooooooooooooooo XX#+--==-=--",
"+ ------+----                                        =##--=--= -",
"###---#-------XXoooooo  oooooooooooooooooo oooooooo-X==#--=--=##",
"##++-&---#--XXXXoooooo  oooooooooooooooooo oooooooo--===--==-===",
"   ## ---                                           ----== ---==",
"&&&##&&--&& XXXXo oooooooooooo ooooooooooooooooooooXX--==-=----=",
"&&&&#&&&&&& XXXXo oooooooooooo ooooooooooooooooooooXXX- --=--==#",
"                                                      ----=--= #",
"=--&&&&& && XXXXooooooooo ooooooooooooooooooo oooooXXX+----===--",
"=---&&&& && XXXXooooooooo ooooooooooooooooooo oooooXXXX+--==-#--",
"=---                                                    +==--=+-",
"=---+&&&&&& XXXXoooooooooooo oooooooooooo oooooooooXXXX &&&--=&#",
"--+=----&&& XXXXoooooooooooo oooooooooooo oooooooooXXXX &&&+-=&#",
"-=-------                                                   +=  ",
"=---=--&&&& XXXXooo oooooooooooooooo ooooooooooooooXXXX  &&&&&&&",
"=---&&&&&&& XXXXooo oooooooooooooooo ooooooooooooooXXXX  &&&&&&&",
" =--                                                            ",
"&&&&& &&&&& XXXXooooooooooooo oooooooooooo ooooooooXXXX &&&&&&&&",
"&&&&& &&&&& XXXXooooooooooooo oooooooooooo ooooooooXXXX &&&&&&&&",
"                                                                ",
" &&&&&&&&&& XXXXoooo oooooooooooooooo oooooooooooooXXXX & &&&&&&",
" &&&&&&&&&& XXXXoooo OOOOOOOOOOOOOOOOOOOOOOOOooooooXXXX & &&&&&&",
"                    OOOOOOOOOOOOOOOOOOOOOOOOOO                  ",
"&&&&&&&&&&& XXXXo ooOOOOOOOOOOOOOOOOOOOOOOOOOOoooooXXX  &&&&&&&&",
"&&&&&&&&&&& XXXXo oo**************************oooooXXX  &&&&&&&&",
"                    &&&&&&&&&&&&&&&&&&&&&&&&&&               -  ",
"&&&&&&&& && XXXXoooo&&%%%%%%%%%%%%%%%%%%%%%%&&oooooXXXX &&&&&--&",
"&-&&&&&& && XXXXoooo&&%%%%%%%%%%%%%%%%%%%%%%&&oooooXXXX -&&&&--&",
" --                 &&%%%%%%%%%%%%%%%%%%%%%%&&          --   -- ",
" --=&&&&&&& XXXXoooo&&%%%%%%%%%%%%%%%%%%%%%%&&oooooXXXX &----==&",
"=--==-&&&&& XXXXoooo&&%%%%%%%%%%%%%%%%%%%%%%&&oooooXXXX =&---=-+",
"- #=---             &&%%%%%%%%%%%%%%%%%%%%%%&&        - ===----+",
"-&-=----&&& XXX oooo&&%%%%%%%%%%%%%%%%%%%%%%&&oooooX =--===----+",
"---==--==&& XXX oooo&&%%%%%%%%%%%%%%%%%%%%%%&&oooooX ==----==#--",
"=----===---         &&@@@@@@@@@@@@@@@@@@@@@@&&        ==--==-=--",
"=+--==-=----.....$$$&&**********************&&$$$......=--=--==-",
"=+#==---#-+ .....$$$&&**********************&&$$$...... -----==+",
"==##=----   ....$$$$&&&&&&&&&&&&&&&&&&&&&&&&&&$$$..--=.#---=-#=+",
"==-#+=---&& ....$$$$$&&&&&&&&&&&&&&&&&&&&&&&&$$$$$.---=#---=###&",
" =--==#--===#...$$$$$$$$$$$$$$$$$$$$$$$$$$$$$$$$$$..-----=#----=",
"++=----===---#                                       ---=-------"
};
