/* XPM */
static char *eb5ac3ea97d44c6cdce4abceabc2c211YvRmyJhd3aIx5QGh[] = {
/* columns rows colors chars-per-pixel */
"64 64 42 1 ",
"  c black",
". c gray3",
"X c #101010",
"o c #181818",
"O c #06003F",
"+ c #202020",
"@ c #282828",
"# c gray19",
"$ c gray22",
"% c #09004E",
"& c #09005D",
"* c #0B006C",
"= c #0C006C",
"- c #0B007B",
"; c #0C007B",
": c gray25",
"> c #484848",
", c #0D008A",
"< c #0E0099",
"1 c #0F00A8",
"2 c #1000B7",
"3 c #1100C6",
"4 c #1200D5",
"5 c #1300E4",
"6 c #1400F3",
"7 c #1803FF",
"8 c #2612FF",
"9 c #3421FF",
"0 c #4230FF",
"q c #503FFF",
"w c #5E4EFF",
"e c #6C5DFF",
"r c #7A6CFF",
"t c #C61AE9",
"y c #BF79CD",
"u c #887BFF",
"i c #968AFF",
"p c #998AFF",
"a c #A499FF",
"s c #B2A8FF",
"d c #C0B7FF",
"f c #CDC6FF",
/* pixels */
"76665666666666666666666                6666666677776666666666666",
"7666566666666666631<,24   XX.oX      ..<<<1245677776666666666666",
"7666566790weq0866312268   XX.oo. XX  ..<<<124567776432111<<12466",
"6566699quuiiw0977412268. .... .. XX .. <<<1245666321<21<,;;<2466",
"556670wrsaiiw09907566qeX....oX     o+. 655668887621<,21<,;;<2466",
"5560qrirsaie9769000weuu..   XX     ++  reew00987621<,21<,;;<2577",
"557qwuieue05323900qqqwq..          ..  reewwq752<O%=,66543345777",
"678wwwe99862222899qwwwq..     XX       reewwq752;%&-266664444777",
"6qwiiq06666222266789976yyttyyX++Xyyttyy888765431;&=,366663333777",
"7weew765555555566788876yyttyyXXXXyyttyy766665431;&*,366652223666",
"7wwwq776655555566777766                8766666686664666631;;1366",
"7qqre776656654466777766 XX          .. 8766677798886666632,,2366",
"777wq996656543366666666 XX  ..  o+. .. 8767788798886666633<<3366",
"66688997766222266666666  XXXo.  o+..X. 77600qq709996655534113366",
"66699996667444368888666  ooXX      +@. 666wwee798886543345655556",
"6669000766866757q000666  ..        oo  666wwww6000063<,,25633336",
"6667888755789w09e00XX      oo            ##qqq6000063,;;15522236",
"6889088744680eequw0$$     .@@.        .. ##8886999963<,,25522236",
"699erqq722359wrwue0@@     XoX. o+.    .oX  666688886433356522236",
"690rrq06222480rerw8       ..   o++o    oo  666667777899976544456",
"690rrq06333366wrur8     .oX      oo    oo  666667877890086644446",
"678wwq06444466eruu8   XX+#X  ..    ..  XX  666667999000085533446",
"66777767777666wwww6  .oXoo XXoo.. o+.  ..  66666700qw99865544556",
"77776668877556qqqq6  ooXX  XXXX.. ++   oo  666666qqww77654434556",
"7777666898865699974  ++++         ..   XX  6666660qww876<,,,5666",
"7777666798875666642  ooXX  ..         XX   6666669900776&&&*7776",
"7788776243375888841  ..    ..         X+X  1113458880888&&&*7776",
"668888613349709983, oo oo     XX       XX  1113456668888***;7776",
"660000612249809986< @@ ++     XX           111345666888822238887",
"66qqqq6222709q79083 @@ XX       oo   X@o   111345666888866667777",
"660qqq7631546968984 oo ..       :>.  X@o   688666632225666667777",
"660qqq762;1<3979q96.oX      Xo. @#...  oo  68866662,;;2500007777",
"660qqq762&;*<080w87.+o      Xo...  XX  oo  66666662,;;2500ww8866",
"669000762&OO;0www66.oX  XX     ..  ..      66666662,;;2500iiww66",
"6699996651<<1errr66.X.ooXX  ..        ++   456666653223500aaee66",
"6689997664334waai06   oo .. ..        @@.. 236666666666666eeee66",
"6668888666557waau06XX    ..     oo  ...... 125666677666666qqqq66",
"7779888666668qaauw6oo          X@o  ..     <14666787666666999966",
"77798886666688rrww6..       .oXXX          113557876666888eqqq66",
"7778777666667799886         .oX   XX   oo  311348766669wwwuwww66",
"7777666666666688886.X. ,,  oo665  XX666o+. 42234766666qrrrieee66",
"6444466666666444466.@+ << X@o644.oX 555 .. 533336663339uuuuwww66",
"6455576666666455576 ++ 55 XX 533.oX 522    644446663330rrr099966",
"6477796333366455576 .. 88    533    522    666666663338qqq888866",
"6477796333366455576    qq    445    522 oo 666666663336999777766",
"6699996333366677777oo  qqXX  357@@  833 @@ 555566666668888666666",
"6688886333588866678##  68++  798@#. 866 oo 555466666667777666666",
"6666666666999966678##  26XX  998 oo 866 .. 5554666666666999q8886",
"6666666668qqq966678++  ;4    856 oo 866 .. 7787666666667000e0006",
"7776666679wwq966688..  O1    966 .. 666 ++ 7898666666669wwwrqqq6",
"8886666679009766565    *1XX  966  XX665 ++ 80qq764444669wweieew6",
"9996666679998666343XX  ,1++  1<2XXXX432 oo 80we985444669990wwwq6",
"0006666677776665121X@o 23@@  ,*;++  122 oo 6890ew9844668889qqq06",
"www6777766666654<<< ## 66++  ,*;XX  122 .+o7890rr0943666668www06",
"qqq68qqq96666654112 oo 66..  ,*;    123  oo6678iarp87r9994700096",
"0006qrrr96666652112566666 @@ 532XX  35666666667uirp09fiuu6899986",
"9996wuuu9665443;,,<666666 $$ 666@@  66666666668weqw09fiuu6888876",
"6669rauw7463222,<<<666666 oo 666oo  66666666679ww0q00fsas9877777",
"6670rrq84463222,<<<666666 .. 89q..  6680qw0999q098688wuriw987777",
"66qruu8544632221222666666.X. 89q.oX 6680qw09990987666680rrw07777",
"66raaa8555644446666666666.+o 89q oo 880wqw0999987666669uddi07777",
"66rrrr7777666666667890qqr ++ 89q XX wqqwqw0998877888778raiu96666",
"66eeee7755446666667890qqr @@ 780 XX wq98666666667888778riur86666",
"6699997733226666667890qqr oo 780 .. wq98666666667888778wwq066666"
};
